mtllib mine.mtl
# vertices
v -16 8 -16
v -16 8 16
v -16 16 16
v -16 16 -16
v 16 16 16
v 16 8 16
v 16 8 -16
v 16 16 -16
v -4 16 -4
v -4 16 4
v -4 96 4
v -4 96 -4
v 4 96 4
v 4 16 4
v 4 16 -4
v 4 96 -4
v -8 96 -8
v -8 96 8
v -8 112 8
v -8 112 -8
v 8 112 8
v 8 96 8
v 8 96 -8
v 8 112 -8
v -24 8 -56
v -24 8 -8
v -24 16 -8
v -24 16 -56
v -16 16 -0
v -16 8 -0
v -16 8 -56
v -16 16 -56
v 16 16 -0
v 16 16 -56
v 16 8 -56
v 16 8 -0
v 24 8 -8
v 24 8 -56
v 24 16 -56
v 24 16 -8
v -16 8 -64
v -24 8 -56
v -24 16 -56
v -16 16 -64
v 24 16 -56
v 24 8 -56
v 16 8 -64
v 16 16 -64
v 16 8 -0
v 16 8 56
v 16 16 56
v 16 16 -0
v 24 16 56
v 24 8 56
v 24 8 8
v 24 16 8
v -24 16 8
v -24 8 8
v -24 8 56
v -24 16 56
v -16 8 -0
v -16 16 -0
v -16 16 56
v -16 8 56
v -24 8 56
v -16 8 64
v -16 16 64
v -24 16 56
v 16 16 64
v 16 8 64
v 24 8 56
v 24 16 56
v -8 8 16
v -8 8 56
v -8 16 56
v -8 16 16
v 8 16 56
v 8 8 56
v 8 8 16
v 8 16 16
v -8 8 -56
v -8 8 -16
v -8 16 -16
v -8 16 -56
v 8 16 -16
v 8 8 -16
v 8 8 -56
v 8 16 -56
v -8 -24 -8
v -8 -24 8
v -8 8 8
v -8 8 -8
v 8 8 8
v 8 -24 8
v 8 -24 -8
v 8 8 -8
v 0 -40 -0
v -8 -24 8
v -8 -24 -8
v 8 -24 8
v 8 -24 -8
v 4 16 -4
v 4 16 4
v 4 32 4
v 4 32 -4
v 8 32 4
v 12 16 4
v 12 16 -4
v 8 32 -4
v -4 16 4
v -4 16 12
v -4 32 8
v -4 32 4
v 4 32 8
v 4 16 12
v 4 16 4
v 4 32 4
v 4 32 8
v 4 32 4
v 4 16 4
v 4 16 12
v 12 16 4
v 8 32 4
v -12 16 -4
v -12 16 4
v -8 32 4
v -8 32 -4
v -4 32 4
v -4 16 4
v -4 16 -4
v -4 32 -4
v -4 16 -12
v -12 16 -4
v -8 32 -4
v -4 32 -8
v -4 32 -4
v -4 16 -4
v -4 16 -12
v -4 16 -4
v -4 32 -4
v -4 32 -8
v 4 32 -4
v 4 16 -4
v 4 16 -12
v 4 32 -8
v 4 16 -12
v 4 16 -4
v 4 32 -4
v 4 32 -8
v 8 32 -4
v 12 16 -4
v -4 32 8
v -8 32 4
v -12 16 4
v -4 16 12
v -4 16 4
v -4 32 4
v 8 -20 -4
v 8 -20 4
v 8 4 4
v 8 4 -4
v 12 4 4
v 12 -20 4
v 12 -20 -4
v 12 4 -4

# texture coordinates
vt -0.25 0.03125
vt 0.25 0.03125
vt 0.25 0.0625
vt -0.25 0.0625
vt -0.25 -0.0625
vt 0.25 -0.0625
vt -0.0625 0.0625
vt 0.0625 0.0625
vt 0.0625 0.375
vt -0.0625 0.375
vt -0.0625 -0.015625
vt 0.0625 -0.015625
vt 0.0625 0.015625
vt -0.0625 0.015625
vt 0.0625 0.4375
vt -0.0625 0.4375
vt -0.0625 -0.03125
vt 0.0625 -0.03125
vt 0.0625 0.03125
vt -0.0625 0.03125
vt -1 0.03125
vt -1 0.0625
vt -0.125 0.0625
vt -0.125 0.03125
vt 0.125 0.03125
vt 0.25 0.25
vt 0.125 0.25
vt -0.125 0.25
vt -0.25 0.25
vt 0.125 0.0625
vt 1 0.03125
vt 1 0.0625
vt 1.25 0.0625
vt 0.5 0.0625
vt 0.5 0.03125
vt 1.25 0.03125
vt 0.125 0.3125
vt 0.125 0.125
vt 0.25 0.15625
vt 0.25 0.28125
vt -0.25 0.28125
vt -0.25 0.15625
vt -0.125 0.125
vt -0.125 0.3125
vt -1.125 0.03125
vt -0.625 0.03125
vt -0.625 0.0625
vt -1.125 0.0625
vt -0.375 0.03125
vt -0.375 0.0625
vt 0 0.0625
vt 0 0.03125
vt 0.03012048 0.03125
vt 0.105421685 0.03125
vt 0.105421685 0.0625
vt 0.03012048 0.0625
vt 0.01506024 0.0625
vt -0.01506024 0.0625
vt -0.01506024 0.03125
vt 0.01506024 0.03125
vt -0.01506024 -0.21875
vt 0.01506024 -0.21875
vt 0.01506024 -0.0625
vt -0.01506024 -0.0625
vt -0.03012048 0.0625
vt -0.105421685 0.0625
vt -0.105421685 0.03125
vt -0.03012048 0.03125
vt 1.0195783 0.03125
vt 1.0948795 0.03125
vt 1.0948795 0.0625
vt 1.0195783 0.0625
vt -1.0195783 0.0625
vt -1.0948795 0.0625
vt -1.0948795 0.03125
vt -1.0195783 0.03125
vt -0.125 -0.09375
vt 0.125 -0.09375
vt -0.125 -0.03125
vt 0.125 -0.03125
vt 0 -0.15625
vt 0.0625 -0.09375
vt -0.0625 -0.09375
vt 0.0625 0.125
vt -0.0625 0.125
vt 0.1875 0.0625
vt -0.1875 -0.015625
vt -0.1875 0.015625
vt 0.125 0.015625
vt 0.125 -0.015625
vt -0.1875 0.0625
vt -0.0625 -0.046875
vt -0.044194173 0.11732158
vt -0.088388346 0.05385253
vt 0.088388346 0.05385253
vt 0.044194173 0.11732158
vt -0.0064102565 -0.32258064
vt 0.0064102565 -0.32258064
vt 0.0064102565 0.06451613
vt -0.0064102565 0.06451613
vt 0.01923077 0.06451613
vt 0.012820513 0.06451613
vt 0.012820513 -0.32258064
vt 0.01923077 -0.32258064
vt -0.01923077 -0.06451613
vt -0.012820513 -0.06451613
vt -0.012820513 0.06451613
vt -0.01923077 0.06451613
vt 0.012820513 -0.06451613
vt 0.01923077 -0.06451613
vt -0.01923077 -0.32258064
vt -0.012820513 -0.32258064
vt 0.65544873 -2.2419355
vt 0.6426282 -2.2419355
vt 0.6426282 -2.6290324
vt 0.65544873 -2.6290324

# normals
vn -1 0 -0
vn 0 0 1
vn 0 -1 -0
vn 0 1 -0
vn 0 0 -1
vn 1 0 -0
vn -0.7071067811865475 0 0.7071067811865475
vn 0.7071067811865475 0 0.7071067811865475
vn -0.7071067811865475 0 -0.7071067811865475
vn 0.7071067811865475 -0 -0.7071067811865475
vn -0.8944271909999159 -0.4472135954999579 -0
vn 0 -0.4472135954999579 0.8944271909999159
vn 0 -0.4472135954999579 -0.8944271909999159
vn 0.8944271909999159 -0.4472135954999579 -0
vn 0.9701425001453319 0.24253562503633297 -0
vn 0 0.24253562503633297 0.9701425001453319
vn 0.6963106238227914 0.17407765595569785 0.6963106238227914
vn -0.9701425001453319 0.24253562503633297 -0
vn -0.6963106238227914 0.17407765595569785 -0.6963106238227914
vn 0 0.24253562503633297 -0.9701425001453319
vn 0.6963106238227914 0.17407765595569785 -0.6963106238227914
vn -0.6963106238227914 0.17407765595569785 0.6963106238227914

o entity0_brush0
usemtl F1/CNDE1A6
f  1/1/1  2/2/1  3/3/1  4/4/1
usemtl F1/CNDE1A6
f  5/3/2  3/4/2  2/1/2  6/2/2
usemtl F1/CNDE1A6
f  6/5/3  2/6/3  1/3/3  7/4/3
usemtl F1/CNDE1A6
f  8/3/4  4/4/4  3/5/4  5/6/4
usemtl F1/CNDE1A6
f  7/1/5  1/2/5  4/3/5  8/4/5
usemtl F1/CNDE1A6
f  8/3/6  5/4/6  6/1/6  7/2/6

o entity0_brush1
usemtl F1/CNDE1A6
f  9/7/1  10/8/1  11/9/1  12/10/1
usemtl F1/CNDE1A6
f  13/9/2  11/10/2  10/7/2  14/8/2
usemtl F1/CNDE1A6
f  14/11/3  10/12/3  9/13/3  15/14/3
usemtl F1/CNDE1A6
f  16/13/4  12/14/4  11/11/4  13/12/4
usemtl F1/CNDE1A6
f  15/7/5  9/8/5  12/9/5  16/10/5
usemtl F1/CNDE1A6
f  16/9/6  13/10/6  14/7/6  15/8/6

o entity0_brush2
usemtl F1/CNDE1_2
f  17/10/1  18/9/1  19/15/1  20/16/1
usemtl F1/CNDE1_2
f  21/15/2  19/16/2  18/10/2  22/9/2
usemtl F1/CNDE1_2
f  22/17/3  18/18/3  17/19/3  23/20/3
usemtl F1/CNDE1_2
f  24/19/4  20/20/4  19/17/4  21/18/4
usemtl F1/CNDE1_2
f  23/10/5  17/9/5  20/15/5  24/16/5
usemtl F1/CNDE1_2
f  24/15/6  21/16/6  22/10/6  23/9/6

o entity0_brush3
usemtl F1/CNDE1A6
f  25/21/1  26/1/1  27/4/1  28/22/1
usemtl F1/CNDE1A6
f  29/23/7  27/4/7  26/1/7  30/24/7
usemtl F1/CNDE1A6
f  30/25/3  26/3/3  25/26/3  31/27/3
usemtl F1/CNDE1A6
f  32/28/4  28/29/4  27/4/4  29/24/4
usemtl F1/CNDE1A6
f  31/25/5  25/2/5  28/3/5  32/30/5
usemtl F1/CNDE1A6
f  31/31/6  32/32/6  29/30/6  30/25/6

o entity0_brush4
usemtl F1/CNDE1A6
f  33/23/1  34/22/1  35/21/1  36/24/1
usemtl F1/CNDE1A6
f  37/30/3  36/2/3  35/26/3  38/27/3
usemtl F1/CNDE1A6
f  39/28/4  34/29/4  33/1/4  40/23/4
usemtl F1/CNDE1A6
f  38/25/5  35/2/5  34/3/5  39/30/5
usemtl F1/CNDE1A6
f  40/23/8  33/4/8  36/1/8  37/24/8
usemtl F1/CNDE1A6
f  40/3/6  37/2/6  38/31/6  39/32/6

o entity0_brush5
usemtl F1/CNDE1A6
f  41/1/9  42/24/9  43/23/9  44/4/9
usemtl F1/CNDE1A6
f  45/33/2  43/34/2  42/35/2  46/36/2
usemtl F1/CNDE1A6
f  46/37/3  42/38/3  41/39/3  47/40/3
usemtl F1/CNDE1A6
f  48/41/4  44/42/4  43/43/4  45/44/4
usemtl F1/CNDE1A6
f  47/45/5  41/46/5  44/47/5  48/48/5
usemtl F1/CNDE1A6
f  48/3/10  45/30/10  46/25/10  47/2/10

o entity0_brush6
usemtl F1/CNDE1A6
f  49/25/1  50/31/1  51/32/1  52/30/1
usemtl F1/CNDE1A6
f  53/3/2  51/30/2  50/25/2  54/2/2
usemtl F1/CNDE1A6
f  54/26/3  50/27/3  49/25/3  55/3/3
usemtl F1/CNDE1A6
f  56/4/4  52/24/4  51/28/4  53/29/4
usemtl F1/CNDE1A6
f  55/1/10  49/49/10  52/50/10  56/4/10
usemtl F1/CNDE1A6
f  56/4/6  53/22/6  54/21/6  55/1/6

o entity0_brush7
usemtl F1/CNDE1A6
f  57/3/1  58/2/1  59/31/1  60/32/1
usemtl F1/CNDE1A6
f  61/1/9  58/24/9  57/23/9  62/4/9
usemtl F1/CNDE1A6
f  63/3/2  60/30/2  59/25/2  64/2/2
usemtl F1/CNDE1A6
f  64/26/3  59/27/3  58/30/3  61/2/3
usemtl F1/CNDE1A6
f  62/1/4  57/23/4  60/28/4  63/29/4
usemtl F1/CNDE1A6
f  64/21/6  61/24/6  62/23/6  63/22/6

o entity0_brush8
usemtl F1/CNDE1A6
f  65/25/7  66/2/7  67/3/7  68/30/7
usemtl F1/CNDE1A6
f  69/47/2  67/48/2  66/45/2  70/46/2
usemtl F1/CNDE1A6
f  70/39/3  66/40/3  65/37/3  71/38/3
usemtl F1/CNDE1A6
f  72/43/4  68/44/4  67/41/4  69/42/4
usemtl F1/CNDE1A6
f  71/35/5  65/36/5  68/33/5  72/34/5
usemtl F1/CNDE1A6
f  71/24/8  72/23/8  69/51/8  70/52/8

o entity0_brush9
usemtl F1/CNDE1A6
f  73/53/1  74/54/1  75/55/1  76/56/1
usemtl F1/CNDE1A6
f  77/57/2  75/58/2  74/59/2  78/60/2
usemtl F1/CNDE1A6
f  78/61/3  74/62/3  73/63/3  79/64/3
usemtl F1/CNDE1A6
f  80/63/4  76/64/4  75/61/4  77/62/4
usemtl F1/CNDE1A6
f  79/59/5  73/60/5  76/57/5  80/58/5
usemtl F1/CNDE1A6
f  80/65/6  77/66/6  78/67/6  79/68/6

o entity0_brush10
usemtl F1/CNDE1A6
f  81/69/1  82/70/1  83/71/1  84/72/1
usemtl F1/CNDE1A6
f  85/57/2  83/58/2  82/59/2  86/60/2
usemtl F1/CNDE1A6
f  86/61/3  82/62/3  81/63/3  87/64/3
usemtl F1/CNDE1A6
f  88/63/4  84/64/4  83/61/4  85/62/4
usemtl F1/CNDE1A6
f  87/59/5  81/60/5  84/57/5  88/58/5
usemtl F1/CNDE1A6
f  88/73/6  85/74/6  86/75/6  87/76/6

o entity0_brush11
usemtl F1/CNDE1A6
f  89/77/1  90/78/1  91/25/1  92/24/1
usemtl F1/CNDE1A6
f  93/25/2  91/24/2  90/77/2  94/78/2
usemtl F1/CNDE1A6
f  94/79/3  90/80/3  89/25/3  95/24/3
usemtl F1/CNDE1A6
f  96/25/4  92/24/4  91/79/4  93/80/4
usemtl F1/CNDE1A6
f  95/77/5  89/78/5  92/25/5  96/24/5
usemtl F1/CNDE1A6
f  96/25/6  93/24/6  94/77/6  95/78/6

o entity0_brush12
usemtl F1/CNDE1_3
f  97/81/11  98/82/11  99/83/11
usemtl F1/CNDE1_3
f  100/82/12  98/83/12  97/81/12
usemtl F1/CNDE1_3
f  101/19/4  99/20/4  98/17/4  100/18/4
usemtl F1/CNDE1_3
f  97/81/13  99/82/13  101/83/13
usemtl F1/CNDE1_3
f  101/82/14  100/83/14  97/81/14

o entity0_brush13
usemtl F1/CNDE1A6
f  102/7/1  103/8/1  104/84/1  105/85/1
usemtl F1/CNDE1A6
f  106/38/2  104/84/2  103/8/2  107/86/2
usemtl F1/CNDE1A6
f  107/87/3  103/11/3  102/14/3  108/88/3
usemtl F1/CNDE1A6
f  109/89/4  105/13/4  104/12/4  106/90/4
usemtl F1/CNDE1A6
f  108/91/5  102/7/5  105/85/5  109/43/5
usemtl F1/CNDE1A6
f  109/84/15  106/85/15  107/7/15  108/8/15

o entity0_brush14
usemtl F1/CNDE1A6
f  110/8/1  111/86/1  112/38/1  113/84/1
usemtl F1/CNDE1A6
f  114/84/16  112/85/16  111/7/16  115/8/16
usemtl F1/CNDE1A6
f  115/88/3  111/87/3  110/11/3  116/14/3
usemtl F1/CNDE1A6
f  117/13/4  113/12/4  112/90/4  114/89/4
usemtl F1/CNDE1A6
f  116/7/5  110/8/5  113/84/5  117/85/5
usemtl F1/CNDE1A6
f  117/85/6  114/43/6  115/91/6  116/7/6

o entity0_brush15
usemtl F1/CNDE1A6
f  118/38/1  119/84/1  120/8/1  121/86/1
usemtl F1/CNDE1A6
f  121/92/3  120/11/3  122/87/3
usemtl F1/CNDE1A6
f  123/90/4  119/12/4  118/18/4
usemtl F1/CNDE1A6
f  122/91/5  120/7/5  119/85/5  123/43/5
usemtl F1/CNDE1A6
f  118/93/17  121/94/17  122/95/17  123/96/17

o entity0_brush16
usemtl F1/CNDE1A6
f  124/7/18  125/8/18  126/84/18  127/85/18
usemtl F1/CNDE1A6
f  128/85/2  126/43/2  125/91/2  129/7/2
usemtl F1/CNDE1A6
f  129/14/3  125/88/3  124/87/3  130/11/3
usemtl F1/CNDE1A6
f  131/12/4  127/90/4  126/89/4  128/13/4
usemtl F1/CNDE1A6
f  130/8/5  124/86/5  127/38/5  131/84/5
usemtl F1/CNDE1A6
f  131/84/6  128/85/6  129/7/6  130/8/6

o entity0_brush17
usemtl F1/CNDE1A6
f  132/94/19  133/95/19  134/96/19  135/93/19
usemtl F1/CNDE1A6
f  136/85/2  134/43/2  133/91/2  137/7/2
usemtl F1/CNDE1A6
f  137/11/3  133/87/3  132/92/3
usemtl F1/CNDE1A6
f  135/18/4  134/90/4  136/12/4
usemtl F1/CNDE1A6
f  137/8/6  132/86/6  135/38/6  136/84/6

o entity0_brush18
usemtl F1/CNDE1A6
f  138/91/1  139/7/1  140/85/1  141/43/1
usemtl F1/CNDE1A6
f  142/84/2  140/85/2  139/7/2  143/8/2
usemtl F1/CNDE1A6
f  143/11/3  139/14/3  138/88/3  144/87/3
usemtl F1/CNDE1A6
f  145/90/4  141/89/4  140/13/4  142/12/4
usemtl F1/CNDE1A6
f  144/7/20  138/8/20  141/84/20  145/85/20
usemtl F1/CNDE1A6
f  145/38/6  142/84/6  143/8/6  144/86/6

o entity0_brush19
usemtl F1/CNDE1A6
f  146/91/1  147/7/1  148/85/1  149/43/1
usemtl F1/CNDE1A6
f  150/38/2  148/84/2  147/8/2  151/86/2
usemtl F1/CNDE1A6
f  151/92/3  147/11/3  146/87/3
usemtl F1/CNDE1A6
f  149/90/4  148/12/4  150/18/4
usemtl F1/CNDE1A6
f  151/94/21  146/95/21  149/96/21  150/93/21

o entity0_brush20
usemtl F1/CNDE1A6
f  152/96/22  153/93/22  154/94/22  155/95/22
usemtl F1/CNDE1A6
f  155/87/3  154/92/3  156/11/3
usemtl F1/CNDE1A6
f  157/12/4  153/18/4  152/90/4
usemtl F1/CNDE1A6
f  156/8/5  154/86/5  153/38/5  157/84/5
usemtl F1/CNDE1A6
f  152/43/6  155/91/6  156/7/6  157/85/6

o entity0_brush21
usemtl hue
f  158/97/1  159/98/1  160/99/1  161/100/1
usemtl hue
f  162/101/2  160/102/2  159/103/2  163/104/2
usemtl hue
f  163/105/3  159/106/3  158/107/3  164/108/3
usemtl hue
f  165/101/4  161/102/4  160/109/4  162/110/4
usemtl hue
f  164/111/5  158/112/5  161/107/5  165/108/5
usemtl hue
f  165/113/6  162/114/6  163/115/6  164/116/6

