mtllib rg1.mtl
# vertices
v -112 8 -16
v -112 8 -0
v -88 16 -0
v -88 16 -16
v 96 16 -0
v 96 8 -0
v 96 8 -16
v 96 16 -16
v 80 -48 -16
v 80 -48 -0
v 72 -8 -0
v 72 -8 -16
v 96 -8 -0
v 100.44444444444446 -48 -0
v 100.44444444444446 -48 -16
v 96 -8 -16
v 96 -8 -16
v 96 -8 -0
v 96 12 -0
v 96 12 -16
v 118 12 -0
v 128 -8 -0
v 128 -8 -16
v 118 12 -16
v 60 -16 -12
v 60 -16 -4
v 52 -8 -4
v 52 -8 -12
v 76 -8 -4
v 76 -16 -4
v 76 -16 -12
v 76 -8 -12
v -100 -8 -16
v -100 -8 -0
v -100 8 -0
v -100 8 -16
v 96 8 -0
v 96 -8 -0
v 96 -8 -16
v 96 8 -16
v -112 -8 -16
v -112 -8 -12
v -112 8 -12
v -112 8 -16
v -100 8 -12
v -100 -8 -12
v -100 -8 -16
v -100 8 -16
v -112 -8 -4
v -112 -8 -0
v -112 8 -0
v -112 8 -4
v -100 8 -0
v -100 -8 -0
v -100 -8 -4
v -100 8 -4
v -112 4 -12
v -112 4 -4
v -112 8 -4
v -112 8 -12
v -100 8 -4
v -100 4 -4
v -100 4 -12
v -100 8 -12
v -112 -8 -12
v -112 -8 -4
v -112 -4 -4
v -112 -4 -12
v -100 -4 -4
v -100 -8 -4
v -100 -8 -12
v -100 -4 -12
v -132 -4 -12
v -132 -4 -4
v -132 4 -4
v -132 4 -12
v -100 4 -4
v -100 -4 -4
v -100 -4 -12
v -100 4 -12
v -100 8 -4
v -100 14.400000000001455 -4
v -100 14.400000000001455 -12
v -100 8 -12
v -68 14.400000000001455 -4
v -68 14.400000000001455 -12
v 72 -48 -16
v 72 -48 -0
v 72 -40 -0
v 72 -40 -16
v 80 -40 -0
v 80 -48 -0
v 80 -48 -16
v 80 -40 -16
v 0 -16 -16
v 0 -16 -0
v 0 -8 -0
v 0 -8 -16
v 32 -8 -0
v 32 -16 -0
v 32 -16 -16
v 32 -8 -16
v -32 -64 -16
v -32 -64 -0
v -32 -56 -0
v -32 -56 -16
v 0 -56 -0
v 0 -64 -0
v 0 -64 -16
v 0 -56 -16
v -32 -56 -16
v -32 -56 -0
v 0 -16 -0
v 0 -16 -16
v 32 -16 -0
v 0 -56 -0
v 0 -56 -16
v 32 -16 -16
v -64 16 -12
v -64 16 -4
v -64 20 -4
v -64 20 -12
v -60 20 -4
v -60 16 -4
v -60 16 -12
v -60 20 -12
v 96 12 -12
v 96 12 -4
v 96 16 -4
v 96 16 -12
v 104 16 -4
v 112 12 -4
v 112 12 -12
v 104 16 -12
v 112 -4 -12
v 112 -4 -4
v 112 4 -4
v 112 4 -12
v 136 4 -4
v 136 -4 -4
v 136 -4 -12
v 136 4 -12

# texture coordinates
vt -1.5 -0.20833333
vt -1.5 -0.125
vt -1.125 -0.125
vt -1.125 -0.20833333
vt 1.5 0.041666668
vt -1.375 0.041666668
vt -1.75 -0
vt 1.5 -0
vt 1.5 -0.125
vt -1.75 -0.125
vt -1.75 -0.20833333
vt 1.5 -0.20833333
vt 1.375 -0.20833333
vt 1.375 -0.125
vt -1.5 -0
vt 1.75 -0
vt 1.375 0.041666668
vt -1.5 0.041666668
vt 0.125 -0.20833333
vt 0.125 -0.125
vt 0 -0.125
vt 0 -0.20833333
vt 0.875 -0.20833333
vt 0.875 -0.125
vt 0.25 -0.125
vt 0.25 -0.20833333
vt 1.5 -0.083333336
vt 1.125 -0.083333336
vt 1.25 -0.29166666
vt 1.5694444 -0.29166666
vt 1.5694444 -0.125
vt 1.25 -0.125
vt 1.25 -0.20833333
vt 1.5694444 -0.20833333
vt -1.5694444 -0.29166666
vt -1.25 -0.29166666
vt -1.125 -0.083333336
vt -1.5 -0.083333336
vt -0.25 -0.20833333
vt -0.25 -0.125
vt -0.875 -0.125
vt -0.875 -0.20833333
vt -0.0625 -0.125
vt -0.0625 -0.20833333
vt 1.84375 0.020833334
vt 1.5 0.020833334
vt 2 -0.083333336
vt 2 -0.125
vt 2 -0.20833333
vt -1.84375 -0.20833333
vt -1.84375 -0.125
vt -2 -0.083333336
vt -1.5 0.020833334
vt -1.84375 0.020833334
vt 0.0625 -0.20833333
vt 0.0625 -0.125
vt 0.22580644 -0.2580645
vt 0.22580644 -0.19354838
vt 0.16129032 -0.19354838
vt 0.16129032 -0.2580645
vt 0.516129 -0.12903225
vt 0.32258064 -0.12903225
vt 0.38709676 -0.19354838
vt 0.516129 -0.19354838
vt 0.38709676 -0.2580645
vt 0.516129 -0.2580645
vt -0.516129 -0.2580645
vt -0.32258064 -0.2580645
vt -0.32258064 -0.19354838
vt -0.516129 -0.19354838
vt -0.38709676 -0.19354838
vt -0.32258064 -0.12903225
vt -0.516129 -0.12903225
vt -0.12903225 -0.2580645
vt -0.12903225 -0.19354838
vt -0.19354838 -0.19354838
vt -0.19354838 -0.2580645
vt 0.625 -0.15625
vt 0 -0.15625
vt 0 0.15625
vt 0.625 0.15625
vt 3.75 0.125
vt -3.90625 0.125
vt -3.90625 -0.1875
vt 3.75 -0.1875
vt 3.75 -0.09375
vt -3.90625 -0.09375
vt -3.90625 -0.40625
vt 3.75 -0.40625
vt -3.75 -0.40625
vt 3.90625 -0.40625
vt 3.90625 -0.09375
vt -3.75 -0.09375
vt -3.75 -0.1875
vt 3.90625 -0.1875
vt 3.90625 0.125
vt -3.75 0.125
vt 0.1875 -0.40625
vt 0.1875 -0.09375
vt -0.4375 -0.09375
vt -0.4375 -0.40625
vt 0.25 -0.1875
vt 0 -0.1875
vt 0.9032258 0.06451613
vt 1 0.06451613
vt 1 -0.06451613
vt 0.9032258 -0.06451613
vt -1.5625 -0.1875
vt -1.75 -0.1875
vt -1.5625 -0.20833333
vt 1.5625 -0.20833333
vt 1.75 -0.20833333
vt 1.75 -0.1875
vt 1.5625 -0.1875
vt 1.5625 -0.083333336
vt 1.75 -0.083333336
vt 1.5625 -0
vt 0.12903225 0.06451613
vt 0.09677419 0.06451613
vt 0.09677419 -0.06451613
vt 0.12903225 -0.06451613
vt 0.0625 -0.109375
vt 0.0625 -0.09375
vt 0 -0.09375
vt 0 -0.109375
vt -0.390625 -0
vt -0.4375 -0
vt -0.4375 -0.0625
vt -0.390625 -0.0625
vt -0.390625 -0.09375
vt -0.4375 -0.109375
vt -0.390625 -0.109375
vt 0.390625 -0.109375
vt 0.4375 -0.109375
vt 0.4375 -0.09375
vt 0.390625 -0.09375
vt -0.4375 -0.03125
vt -0.484375 -0.03125
vt -0.484375 0.03125
vt -0.4375 0.03125
vt 0.015625 0.03125
vt 0 0.03125
vt 0 -0.03125
vt 0.015625 -0.03125
vt 0.0625 -0.1875
vt 0.0625 -0.14583333
vt 0 -0.14583333
vt -0.9032258 0.06451613
vt -1 0.06451613
vt -1 0.032258064
vt -0.9032258 0.032258064
vt -1 0.09677419
vt -0.9032258 0.09677419
vt 1.75 -0.14583333
vt 1.5625 -0.14583333
vt 0.9032258 0.032258064
vt 1 0.032258064
vt 0.032258064 0.06451613
vt 0.032258064 0.032258064
vt 0.09677419 0.032258064
vt 0.25 -0.14583333
vt 0.1875 -0.14583333
vt 0.1875 -0.1875
vt -0.9032258 -0.032258064
vt -1 -0.032258064
vt -1 -0.06451613
vt -0.9032258 -0.06451613
vt -1.5625 -0.14583333
vt -1.75 -0.14583333
vt 0.9032258 0.09677419
vt 1 0.09677419
vt 1 -0.032258064
vt 0.9032258 -0.032258064
vt 0.09677419 -0.032258064
vt 0.032258064 -0.032258064
vt 0.032258064 -0.06451613
vt -0.09677419 -0.032258064
vt -0.032258064 -0.032258064
vt -0.032258064 0.032258064
vt -0.09677419 0.032258064
vt -0.8064516 0.032258064
vt -1.0645162 0.032258064
vt -1.0645162 -0.032258064
vt -0.8064516 -0.032258064
vt 0.8064516 0.032258064
vt 1.0645162 0.032258064
vt 1.0645162 0.09677419
vt 0.8064516 0.09677419
vt -0.8064516 0.09677419
vt -1.0645162 0.09677419
vt 0.8064516 -0.032258064
vt 1.0645162 -0.032258064
vt -0.032258064 0.06451613
vt -0.032258064 0.116129026
vt -0.09677419 0.116129026
vt -0.09677419 0.06451613
vt -0.5483871 0.116129026
vt -0.8064516 0.116129026
vt -0.8064516 0.06451613
vt -0.5483871 0.09677419
vt -0.5483871 0.032258064
vt 0.8064516 0.06451613
vt 0.8064516 0.116129026
vt 0.5483871 0.116129026
vt 0.5483871 0.09677419
vt 0.5483871 0.032258064
vt 0.25000006 0.20833333
vt 6.5567086e-08 0.20833333
vt 5.4639237e-08 0.16666667
vt 0.25000006 0.16666667
vt 0.62499994 0.33333334
vt 0.62499994 0.29166666
vt 0.74999994 0.29166666
vt 0.74999994 0.33333334
vt 5.4639237e-08 -0.41666666
vt 4.9175313e-08 -0.375
vt -0.24999996 -0.375
vt -0.24999994 -0.41666666
vt -0.25000006 0.33333334
vt -0.25000006 0.29166666
vt -4.9175313e-08 0.29166666
vt -5.4639237e-08 0.33333334
vt 0.75000006 -0.41666666
vt 0.75000006 -0.375
vt 0.62500006 -0.375
vt 0.62500006 -0.41666666
vt 0.625 0.041666675
vt 0.625 -0.041666657
vt 0.75 -0.041666657
vt 0.75 0.041666675
vt -0.0625 -0.0625
vt 0 -0.0625
vt -0.0625 -0.03125
vt -0.125 -0.03125
vt -0.25 -0.03125
vt -0.25 -0.0625
vt -0.125 -0.0625
vt 0.125 -0
vt 0.25 -0
vt 0.25 0.0625
vt 0.125 0.0625
vt -0.125 0.0625
vt -0.25 0.0625
vt -0.25 -0
vt -0.125 -0
vt 0.125 -0.0625
vt 0.25 -0.0625
vt 0.25 -0.03125
vt 0.125 -0.03125
vt 0.0625 -0.03125
vt 0.0625 -0.0625
vt -0.0625 -0.25
vt 0 -0.25
vt 0 -0.21875
vt -0.0625 -0.21875
vt -0.125 -0.21875
vt -0.25 -0.21875
vt -0.25 -0.25
vt -0.125 -0.25
vt 0.125 -0.25
vt 0.25 -0.25
vt 0.25 -0.21875
vt 0.125 -0.21875
vt 0.0625 -0.21875
vt 0.0625 -0.25
vt 0.9956076 -0.21481545
vt 0.99560773 -0.05856546
vt 0.1952172 -0.058565214
vt 0.19521707 -0.21481521
vt -0.12499976 0.3124999
vt -0.125 -7.636907e-08
vt 0.49999976 -0.31250027
vt 0.5 -2.6729174e-07
vt 0.375 -0
vt 0.37500024 0.3125
vt 0.12500024 0.31250006
vt 0.125 7.636907e-08
vt -0.62499976 0.31250006
vt -0.625 7.636907e-08
vt -0.375 -0
vt -0.37499976 0.3125
vt 1.25 -2.6729174e-07
vt 1.2500002 0.31249973
vt 0.625 -7.636907e-08
vt 0.62499976 -0.31250006
vt -0.1171302 0.09768487
vt -0.117130324 -0.058565125
vt 0.6832602 -0.05856537
vt 0.6832603 0.09768463
vt -0.1875 0.0625
vt -0.0625 0.0625
vt -0.0625 0.078125
vt -0.1875 0.078125
vt -0.5 0.078125
vt -0.5625 0.078125
vt -0.5625 0.0625
vt -0.5 0.0625
vt 0.5 0.015625
vt 0.5625 0.015625
vt 0.5625 0.046875
vt 0.5 0.046875
vt -0.5 0.046875
vt -0.5625 0.046875
vt -0.5625 0.015625
vt -0.5 0.015625
vt 0.5 0.0625
vt 0.5625 0.0625
vt 0.5625 0.078125
vt 0.5 0.078125
vt 0.1875 0.078125
vt 0.0625 0.078125
vt 0.0625 0.0625
vt 0.1875 0.0625
vt 1.625 0.078125
vt 1.5 0.078125
vt 1.5 0.0625
vt 1.75 0.0625
vt -1.75 0.015625
vt -1.5 0.015625
vt -1.5 0.046875
vt -1.75 0.046875
vt 1.625 0.046875
vt 1.5 0.046875
vt 1.5 0.015625
vt 1.625 0.015625
vt -1.75 0.0625
vt -1.5 0.0625
vt -1.5 0.078125
vt -1.625 0.078125
vt 0.1875 0.03125
vt 0.0625 0.03125
vt -0.1875 -0.015625
vt -0.0625 -0.015625
vt -0.0625 0.015625
vt -0.1875 0.015625
vt 2.125 0.015625
vt 1.75 0.015625
vt 1.75 -0.015625
vt 2.125 -0.015625
vt -2.125 0.015625
vt -2.125 0.046875
vt 2.125 0.046875
vt 1.75 0.046875
vt -2.125 -0.015625
vt -1.75 -0.015625
vt 0.1875 0.015625
vt 0.0625 0.015625
vt 0.0625 -0.015625
vt 0.1875 -0.015625

# normals
vn -0.31622776601683794 0.9486832980505138 -0
vn 0 0 1
vn 0 -1 -0
vn 0 1 -0
vn 0 -0 -1
vn 1 0 -0
vn -0.9805806756909202 -0.19611613513818404 -0
vn 0.9938837346736189 0.11043152607484687 -0
vn -1 0 0
vn 0.8944271909999159 0.4472135954999579 -0
vn -0.7071067811865475 -0.7071067811865475 -0
vn 0.19611613513818404 -0.9805806756909202 -0
vn -0.7808688094430304 0.6246950475544243 -0
vn 0.7808688094430304 -0.6246950475544243 -0
vn 0.4472135954999579 0.8944271909999159 -0

o entity0_brush0
usemtl Windows/Materials/window_shutter_black
f  1/1/1  2/2/1  3/3/1  4/4/1
usemtl Windows/Materials/window_shutter_black
f  5/5/2  3/6/2  2/7/2  6/8/2
usemtl Windows/Materials/window_shutter_black
f  6/9/3  2/10/3  1/11/3  7/12/3
usemtl Windows/Materials/window_shutter_black
f  8/1/4  4/13/4  3/14/4  5/2/4
usemtl Windows/Materials/window_shutter_black
f  7/15/5  1/16/5  4/17/5  8/18/5
usemtl Windows/Materials/window_shutter_black
f  8/19/6  5/20/6  6/21/6  7/22/6

o entity0_brush1
usemtl Windows/Materials/window_shutter_black
f  9/23/7  10/24/7  11/25/7  12/26/7
usemtl Windows/Materials/window_shutter_black
f  13/27/2  11/28/2  10/29/2  14/30/2
usemtl Windows/Materials/window_shutter_black
f  14/31/3  10/32/3  9/33/3  15/34/3
usemtl Windows/Materials/window_shutter_black
f  16/1/4  12/4/4  11/3/4  13/2/4
usemtl Windows/Materials/window_shutter_black
f  15/35/5  9/36/5  12/37/5  16/38/5
usemtl Windows/Materials/window_shutter_black
f  16/39/8  13/40/8  14/41/8  15/42/8

o entity0_brush2
usemtl Windows/Materials/window_shutter_black
f  17/26/9  18/25/9  19/43/9  20/44/9
usemtl Windows/Materials/window_shutter_black
f  21/45/2  19/46/2  18/27/2  22/47/2
usemtl Windows/Materials/window_shutter_black
f  22/48/3  18/9/3  17/12/3  23/49/3
usemtl Windows/Materials/window_shutter_black
f  24/50/4  20/1/4  19/2/4  21/51/4
usemtl Windows/Materials/window_shutter_black
f  23/52/5  17/38/5  20/53/5  24/54/5
usemtl Windows/Materials/window_shutter_black
f  24/55/10  21/56/10  22/40/10  23/39/10

o entity0_brush3
usemtl road
f  25/57/11  26/58/11  27/59/11  28/60/11
usemtl road
f  29/61/2  27/62/2  26/63/2  30/64/2
usemtl road
f  30/64/3  26/63/3  25/65/3  31/66/3
usemtl road
f  32/67/4  28/68/4  27/69/4  29/70/4
usemtl road
f  31/70/5  25/71/5  28/72/5  32/73/5
usemtl road
f  32/74/6  29/75/6  30/76/6  31/77/6

o entity0_brush4
usemtl F1/CNDE1A6
f  33/78/9  34/79/9  35/80/9  36/81/9
usemtl F1/CNDE1A6
f  37/82/2  35/83/2  34/84/2  38/85/2
usemtl F1/CNDE1A6
f  38/86/3  34/87/3  33/88/3  39/89/3
usemtl F1/CNDE1A6
f  40/90/4  36/91/4  35/92/4  37/93/4
usemtl F1/CNDE1A6
f  39/94/5  33/95/5  36/96/5  40/97/5
usemtl F1/CNDE1A6
f  40/98/6  37/99/6  38/100/6  39/101/6

o entity0_brush5
usemtl Windows/Materials/window_shutter_black
f  41/26/9  42/102/9  43/103/9  44/22/9
usemtl road
f  45/104/2  43/105/2  42/106/2  46/107/2
usemtl Windows/Materials/window_shutter_black
f  46/108/3  42/109/3  41/11/3  47/110/3
usemtl Windows/Materials/window_shutter_black
f  48/111/4  44/112/4  43/113/4  45/114/4
usemtl Windows/Materials/window_shutter_black
f  47/115/5  41/116/5  44/16/5  48/117/5
usemtl road
f  48/118/6  45/119/6  46/120/6  47/121/6

o entity0_brush6
usemtl F1/CNPS1_1
f  49/122/9  50/123/9  51/124/9  52/125/9
usemtl F1/CNPS1_1
f  53/126/2  51/127/2  50/128/2  54/129/2
usemtl F1/CNPS1_1
f  54/130/3  50/100/3  49/131/3  55/132/3
usemtl F1/CNPS1_1
f  56/133/4  52/134/4  51/135/4  53/136/4
usemtl F1/CNPS1_1
f  55/137/5  49/138/5  52/139/5  56/140/5
usemtl F1/CNPS1_1
f  56/141/6  53/142/6  54/143/6  55/144/6

o entity0_brush7
usemtl Windows/Materials/window_shutter_black
f  57/145/9  58/146/9  59/147/9  60/103/9
usemtl road
f  61/148/2  59/149/2  58/150/2  62/151/2
usemtl road
f  62/151/3  58/150/3  57/152/3  63/153/3
usemtl Windows/Materials/window_shutter_black
f  64/114/4  60/113/4  59/154/4  61/155/4
usemtl road
f  63/156/5  57/157/5  60/105/5  64/104/5
usemtl road
f  64/119/6  61/158/6  62/159/6  63/160/6

o entity0_brush8
usemtl Windows/Materials/window_shutter_black
f  65/102/9  66/161/9  67/162/9  68/163/9
usemtl road
f  69/164/2  67/165/2  66/166/2  70/167/2
usemtl Windows/Materials/window_shutter_black
f  70/168/3  66/169/3  65/109/3  71/108/3
usemtl road
f  72/170/4  68/171/4  67/157/4  69/156/4
usemtl road
f  71/107/5  65/106/5  68/172/5  72/173/5
usemtl road
f  72/174/6  69/175/6  70/176/6  71/120/6

o entity0_brush9
usemtl road
f  73/177/9  74/178/9  75/179/9  76/180/9
usemtl road
f  77/181/2  75/182/2  74/183/2  78/184/2
usemtl road
f  78/185/3  74/186/3  73/187/3  79/188/3
usemtl road
f  80/189/4  76/190/4  75/182/4  77/181/4
usemtl road
f  79/191/5  73/192/5  76/186/5  80/185/5
usemtl road
f  80/160/6  77/159/6  78/175/6  79/174/6

o entity0_brush10
usemtl road
f  81/193/9  82/194/9  83/195/9  84/196/9
usemtl road
f  85/197/2  82/198/2  81/199/2
usemtl road
f  86/200/4  83/189/4  82/181/4  85/201/4
usemtl road
f  84/202/5  83/203/5  86/204/5
usemtl road
f  86/205/12  85/206/12  81/185/12  84/188/12

o entity0_brush11
usemtl Windows/Materials/window_shutter_black
f  87/207/9  88/208/9  89/209/9  90/210/9
usemtl Windows/Materials/window_shutter_black
f  91/211/2  89/212/2  88/213/2  92/214/2
usemtl Windows/Materials/window_shutter_black
f  92/215/3  88/216/3  87/217/3  93/218/3
usemtl Windows/Materials/window_shutter_black
f  94/219/4  90/220/4  89/221/4  91/222/4
usemtl Windows/Materials/window_shutter_black
f  93/223/5  87/224/5  90/225/5  94/226/5
usemtl Windows/Materials/window_shutter_black
f  94/227/6  91/228/6  92/229/6  93/230/6

o entity0_brush12
usemtl F1/CNRF/CNRF15
f  95/231/9  96/232/9  97/143/9  98/233/9
usemtl F1/CNRF/CNRF15
f  99/234/2  97/235/2  96/236/2  100/237/2
usemtl F1/CNRF/CNRF15
f  100/238/3  96/239/3  95/240/3  101/241/3
usemtl F1/CNRF/CNRF15
f  102/242/4  98/243/4  97/244/4  99/245/4
usemtl F1/CNRF/CNRF15
f  101/246/5  95/247/5  98/248/5  102/249/5
usemtl F1/CNRF/CNRF15
f  102/250/6  99/143/6  100/232/6  101/251/6

o entity0_brush13
usemtl F1/CNRF/CNRF15
f  103/252/9  104/253/9  105/254/9  106/255/9
usemtl F1/CNRF/CNRF15
f  107/256/2  105/257/2  104/258/2  108/259/2
usemtl F1/CNRF/CNRF15
f  108/238/3  104/239/3  103/240/3  109/241/3
usemtl F1/CNRF/CNRF15
f  110/242/4  106/243/4  105/244/4  107/245/4
usemtl F1/CNRF/CNRF15
f  109/260/5  103/261/5  106/262/5  110/263/5
usemtl F1/CNRF/CNRF15
f  110/264/6  107/254/6  108/253/6  109/265/6

o entity0_brush14
usemtl F1/CNDE1A6
f  111/266/13  112/267/13  113/268/13  114/269/13
usemtl F1/CNDE1A6
f  115/270/2  113/271/2  112/272/2  116/273/2
usemtl F1/CNDE1A6
f  116/274/3  112/275/3  111/276/3  117/277/3
usemtl F1/CNDE1A6
f  118/278/4  114/279/4  113/280/4  115/281/4
usemtl F1/CNDE1A6
f  117/282/5  111/283/5  114/284/5  118/285/5
usemtl F1/CNDE1A6
f  118/286/14  115/287/14  116/288/14  117/289/14

o entity0_brush15
usemtl F1/CNDE1A6
f  119/290/9  120/291/9  121/292/9  122/293/9
usemtl F1/CNDE1A6
f  123/294/2  121/295/2  120/296/2  124/297/2
usemtl F1/CNDE1A6
f  124/298/3  120/299/3  119/300/3  125/301/3
usemtl F1/CNDE1A6
f  126/302/4  122/303/4  121/304/4  123/305/4
usemtl F1/CNDE1A6
f  125/306/5  119/307/5  122/308/5  126/309/5
usemtl F1/CNDE1A6
f  126/310/6  123/311/6  124/312/6  125/313/6

o entity0_brush16
usemtl F1/CNDE1A6
f  127/290/9  128/291/9  129/292/9  130/293/9
usemtl F1/CNDE1A6
f  131/314/2  129/315/2  128/316/2  132/317/2
usemtl F1/CNDE1A6
f  132/318/3  128/319/3  127/320/3  133/321/3
usemtl F1/CNDE1A6
f  134/322/4  130/323/4  129/324/4  131/325/4
usemtl F1/CNDE1A6
f  133/326/5  127/327/5  130/328/5  134/329/5
usemtl F1/CNDE1A6
f  134/330/15  131/331/15  132/312/15  133/313/15

o entity0_brush17
usemtl F1/CNDE1A6
f  135/332/9  136/333/9  137/334/9  138/335/9
usemtl F1/CNDE1A6
f  139/336/2  137/337/2  136/338/2  140/339/2
usemtl F1/CNDE1A6
f  140/340/3  136/318/3  135/321/3  141/341/3
usemtl F1/CNDE1A6
f  142/342/4  138/343/4  137/337/4  139/336/4
usemtl F1/CNDE1A6
f  141/344/5  135/345/5  138/318/5  142/340/5
usemtl F1/CNDE1A6
f  142/346/6  139/347/6  140/348/6  141/349/6

