mtllib boostpad.mtl
# vertices
v -24 -16 -56
v -24 -16 104
v -24 32 -24
v 24 32 -24
v 24 -16 104
v 24 -16 -56
v 24 -16 80
v 24 -16 104
v 24 -11.199999999997091 80
v 40 -11.199999999997091 80
v 40 -16 104
v 40 -16 80
v -40 -16 80
v -40 -16 104
v -40 -11.199999999997091 80
v -24 -11.199999999997091 80
v -24 -16 104
v -24 -16 80
v 24 -16 -64
v 24 -16 88
v 24 16 64
v 24 16 -64
v 40 16 64
v 48 -16 88
v 40 -16 -64
v 32 16 -64
v -32 0 -56
v -32 0 -40
v -32 64 -40
v -32 67.2 -56
v -28 64 -40
v -28 0 -40
v -28 67.2 -56
v -28 0 -56
v -48 -16 88
v -40 16 64
v -40 -16 -64
v -32 16 -64
v -24 16 64
v -24 -16 88
v -24 -16 -64
v -24 16 -64
v 28 0 -60
v 28 0 -44
v 28 64 -44
v 28 67.19999999999999 -60
v 32 64 -44
v 32 0 -44
v 32 67.19999999999999 -60
v 32 0 -60

# texture coordinates
vt 0.4375 -0.125
vt -0.8125 -0.125
vt 0.1875 0.25
vt -0.2500003 0.18749982
vt -0.25000006 -1.3125002
vt 3.75 -1.3124995
vt 3.7499995 0.18750048
vt 0.8125 -0.18750001
vt 0.8125 0.18749999
vt -0.4375 0.1875
vt -0.4375 -0.1875
vt -0.1875 -0.125
vt 0.1875 -0.125
vt -0.1875 0.25
vt 0.8125 -0.125
vt -0.4375 -0.125
vt 0.625 -0.125
vt 0.625 -0.0875
vt 0.625 0.3125
vt 0.625 0.18749999
vt 0.8125 0.3125
vt 0.8125 -0.3125
vt 0.625 -0.18750001
vt 0.625 -0.3125
vt 0.3125 -0.125
vt 0.1875 -0.0875
vt 0.3125 -0.0875
vt -0.625 -0.125
vt -0.625 -0.0875
vt -0.3125 -0.125
vt -0.3125 -0.0875
vt -0.1875 -0.0875
vt -0.46875 0.21875004
vt 0.71875 0.21874994
vt 0.53125 -0.031250045
vt -0.46875 -0.031249955
vt -0.0625 -0.12499997
vt 0.062499985 -0.124999985
vt 0.062500015 0.12500001
vt -0.125 0.12500003
vt 0.12500006 0.68749994
vt -0.06249994 0.6875
vt -0.062500045 -0.5
vt 0.06249997 -0.5
vt -2.9802322e-08 -0.49999997
vt 0.062499955 -0.49999997
vt 0.062500045 0.5
vt -0.06249997 0.5
vt 0.0625 0.12499997
vt -0.062499985 0.124999985
vt -0.062500015 -0.12500001
vt -1.4901161e-08 -0.12500001
vt -0.12500001 -0.5
vt 0.12499998 -0.5
vt 0.12500001 0.5
vt -0.12499997 0.6875
vt -5.217135e-09 -0.5625
vt -3.7265253e-09 -0.4375
vt -0.5 -0.4375
vt -0.525 -0.5625
vt 0.21875 0.375
vt 0.25 0.375
vt 0.25 -0.125
vt 0.21875 -0.125
vt 0.21874996 -0.38461542
vt 0.24999996 -0.38461542
vt 0.24999997 -0.25961542
vt 0.21874997 -0.25961542
vt -0.3125 0.21875
vt -0.3125 0.25
vt -0.4375 0.25
vt -0.4375 0.21875
vt 0.21875 -0.124999985
vt 0.25 -0.124999985
vt 0.25 0.39999998
vt 0.21875 0.39999998
vt -0.5 0.1875
vt 3.7265253e-09 0.1875
vt 5.217135e-09 0.3125
vt -0.525 0.3125
vt -0.12500003 -0.6875
vt -0.12499998 0.5
vt 0.0625 -0.12500003
vt 0.125 0.12499997
vt 0.06250006 0.6875
vt -0.12499994 0.68750006
vt -0.06250003 -0.49999997
vt -4.4703484e-08 -0.5
vt 0.06250003 0.49999997
vt -0.062499955 0.49999997
vt -0.0625 0.12500003
vt 0 -0.12499998
vt 0.46875 0.21874996
vt 0.46875 -0.031250045
vt -0.53125 -0.031249955
vt -0.71875 0.21875006
vt 5.5897877e-09 0.3125
vt 4.0991774e-09 0.18749999
vt -0.5 0.18749999
vt 0.24999996 -0.3846152
vt 0.21874996 -0.3846152
vt 0.21874997 -0.2596152
vt 0.24999997 -0.2596152
vt -4.0991774e-09 -0.4375
vt -5.5897877e-09 -0.5625

# normals
vn -1 -0 -0
vn 0 0.9363291775690445 0.3511234415883917
vn 0 -1 -0
vn 0 0.554700196225229 -0.8320502943378436
vn 1 0 -0
vn 0 0.9805806756909202 0.19611613513818407
vn 0 0 -1
vn 0 0.6 0.8
vn 0 1 -0
vn 0.9683640522700839 0.24209101306752098 -0.060522753266880246
vn 0.9772545497599154 0.20573779994945587 -0.05143444998736397
vn -0 -0 1
vn 0 0.9805806756909201 0.19611613513818418
vn -0.9772545497599154 0.20573779994945587 -0.05143444998736397
vn -0.9683640522700839 0.24209101306752098 -0.060522753266880246
vn 0 0.9805806756909201 0.19611613513818385

o entity0_brush0
usemtl F1/CNWW1_2
f  1/1/1  2/2/1  3/3/1
usemtl Metal/Materials/metal_misc
f  4/4/2  3/5/2  2/6/2  5/7/2
usemtl F1/CNWW1_2
f  5/8/3  2/9/3  1/10/3  6/11/3
usemtl F1/CNWW1_2
f  6/12/4  1/13/4  3/3/4  4/14/4
usemtl F1/CNWW1_2
f  5/15/5  6/16/5  4/14/5

o entity0_brush1
usemtl F1/CNWW1_2
f  7/17/1  8/15/1  9/18/1
usemtl F1/CNWW1_2
f  10/19/6  9/20/6  8/9/6  11/21/6
usemtl F1/CNWW1_2
f  11/22/3  8/8/3  7/23/3  12/24/3
usemtl F1/CNWW1_2
f  12/25/7  7/13/7  9/26/7  10/27/7
usemtl F1/CNWW1_2
f  11/2/5  12/28/5  10/29/5

o entity0_brush2
usemtl F1/CNWW1_2
f  13/17/1  14/15/1  15/18/1
usemtl F1/CNWW1_2
f  16/23/6  15/24/6  14/22/6  17/8/6
usemtl F1/CNWW1_2
f  17/9/3  14/21/3  13/19/3  18/20/3
usemtl F1/CNWW1_2
f  18/12/7  13/30/7  15/31/7  16/32/7
usemtl F1/CNWW1_2
f  17/2/5  18/28/5  16/29/5

o entity0_brush3
usemtl F1/CNWW1_2
f  19/33/1  20/34/1  21/35/1  22/36/1
usemtl F1/CNWW1_2
f  23/37/8  21/38/8  20/39/8  24/40/8
usemtl F1/CNWW1_2
f  24/41/3  20/42/3  19/43/3  25/44/3
usemtl F1/CNWW1_2
f  26/45/9  22/46/9  21/47/9  23/48/9
usemtl F1/CNWW1_2
f  25/49/7  19/50/7  22/51/7  26/52/7
usemtl F1/CNWW1_2
f  25/53/10  26/54/10  23/55/10
usemtl F1/CNWW1_2
f  25/53/11  23/55/11  24/56/11

o entity0_brush4
usemtl F1/CNWW1_10
f  27/57/1  28/58/1  29/59/1  30/60/1
usemtl F1/CNWW1_10
f  31/61/12  29/62/12  28/63/12  32/64/12
usemtl F1/CNWW1_10
f  33/65/13  30/66/13  29/67/13  31/68/13
usemtl F1/CNWW1_10
f  32/69/3  28/70/3  27/71/3  34/72/3
usemtl F1/CNWW1_10
f  34/73/7  27/74/7  30/75/7  33/76/7
usemtl F1/CNWW1_10
f  31/77/5  32/78/5  34/79/5  33/80/5

o entity0_brush5
usemtl F1/CNWW1_2
f  35/81/14  36/54/14  37/82/14
usemtl F1/CNWW1_2
f  37/82/15  36/54/15  38/55/15
usemtl F1/CNWW1_2
f  39/51/8  36/83/8  35/84/8  40/50/8
usemtl F1/CNWW1_2
f  40/85/3  35/86/3  37/87/3  41/46/3
usemtl F1/CNWW1_2
f  42/43/9  38/88/9  36/89/9  39/90/9
usemtl F1/CNWW1_2
f  41/39/7  37/91/7  38/92/7  42/38/7
usemtl F1/CNWW1_2
f  41/93/5  42/94/5  39/95/5  40/96/5

o entity0_brush6
usemtl F1/CNWW1_10
f  43/97/1  44/98/1  45/99/1  46/80/1
usemtl F1/CNWW1_10
f  47/62/12  45/61/12  44/64/12  48/63/12
usemtl F1/CNWW1_10
f  49/100/16  46/101/16  45/102/16  47/103/16
usemtl F1/CNWW1_10
f  48/70/3  44/69/3  43/72/3  50/71/3
usemtl F1/CNWW1_10
f  50/63/7  43/64/7  46/76/7  49/75/7
usemtl F1/CNWW1_10
f  47/59/5  48/104/5  50/105/5  49/60/5

