mtllib m1.mtl
# vertices
v -48 -16 -64
v -40 -16 64
v -48 40 -40
v -8 24 32
v 8 24 32
v 40 -16 64
v 48 40 -40
v 48 -16 -64
v -48 -32 -48
v -48 -32 48
v -48 -16 -64
v -40 -16 64
v 40 -16 64
v 48 -32 48
v 48 -32 -48
v 48 -16 -64
v -32 -1.8461538461669988 -3.076923077180254
v -32 48 -24
v -32 -8 -88
v -30 42 -76
v -30 15.069767441884647 -100.83720930231091
v -8 48 -24
v -8 -1.8461538461670015 -3.076923077180254
v -16 -8 -88
v -18 42 -76
v -18 15.069767441884647 -100.83720930231091
v -16 -48 -24
v -16 -48 8
v -16 -32 8
v -16 -32 -24
v 16 -32 8
v 16 -48 8
v 16 -48 -24
v 16 -32 -24
v -80 0 -48
v -80 0 -8
v -80 24 -14
v -80 24 -48
v -64 0 -8
v -64 0 -48
v -64 24 -40
v -64 24 -22
v -112 0 -48
v -112 0 -8
v -112 8 -12
v -112 8 -48
v -80 24 -48
v -96 16 -12
v -80 24 -14
v -80 0 -8
v -80 0 -48
v 64 24 -40
v 64 0 -48
v 64 0 -8
v 64 24 -22
v 80 24 -48
v 80 24 -14
v 80 0 -8
v 80 0 -48
v 80 24 -48
v 80 0 -48
v 80 0 -8
v 80 24 -14
v 112 0 -8
v 96 16 -12
v 112 0 -48
v 112 8 -48
v 112 8 -12
v -64 8 -40
v -64 8 -24
v -64 24 -24
v -64 24 -40
v -48 24 -24
v -48 8 -24
v -48 8 -40
v -48 24 -40
v 48 8 -40
v 48 8 -24
v 48 24 -24
v 48 24 -40
v 64 24 -24
v 64 8 -24
v 64 8 -40
v 64 24 -40
v -88 -8 -48
v -88 -8 -8
v -88 0 -8
v -88 0 -48
v -80 0 -8
v -80 -8 -8
v -80 -8 -48
v -80 0 -48
v -112 -8 -48
v -112 -8 -8
v -112 0 -8
v -112 0 -48
v -104 0 -8
v -104 -8 -8
v -104 -8 -48
v -104 0 -48
v 80 -8 -48
v 80 -8 -8
v 80 0 -8
v 80 0 -48
v 88 0 -8
v 88 -8 -8
v 88 -8 -48
v 88 0 -48
v 104 -8 -48
v 104 -8 -8
v 104 0 -8
v 104 0 -48
v 112 0 -8
v 112 -8 -8
v 112 -8 -48
v 112 0 -48
v 8 48 -24
v 16 -8 -88
v 8 -1.846153846163359 -3.0769230770748237
v 18 15.069767441879165 -100.83720930231125
v 18 42 -76
v 32 -1.8461538461633615 -3.076923077074819
v 32 -8 -88
v 32 48 -24
v 30 42 -76
v 30 15.069767441879161 -100.83720930231125

# texture coordinates
vt -0.0625 0.25
vt -0.062499996 -0.25
vt 0.15625 0.15625
vt -0.3281606 0.4901182
vt -0.14062496 0.41665596
vt -0.19832823 0.12280702
vt -0.2416057 -0.5449695
vt -0.27045733 -0.5449695
vt -0.3281606 -0.9122807
vt -0.18390241 -0.9122807
vt 0.1875 0.15625
vt -0.1875 0.15625
vt -0.03125 -0.125
vt 0.03125 -0.125
vt -0.3125 -0.5
vt 0.3125 -0.5
vt 0.375 0.5
vt -0.375 0.5
vt -0.0625 0.1875
vt -0.062499996 -0.1875
vt 0.15625 -0.1875
vt 0.15625 0.1875
vt -0.19171491 0.50766206
vt -0.3215473 0.14035088
vt -0.3792506 0.4341998
vt 0.15625 -0.15625
vt -0.125 0.1875
vt -0.125 -0.1875
vt -0.062499996 -0.15625
vt -0.0625 0.15625
vt -0.1875 0.1875
vt -0.1875 -0.1875
vt 0.1875 -0.1875
vt 0.1875 0.1875
vt 0.055288456 -0.08173077
vt 0.25 -0
vt 0.031249993 0.25
vt 0.2265625 0.20312499
vt 0.031249996 0.24999999
vt 0.25 -1.4901161e-08
vt 0.12136628 0.30014533
vt -0.15625042 1.158381
vt -0.65625024 1.158381
vt -0.65625024 -0.41343898
vt -0.15625042 -0.41343898
vt -0.0625 -0.09200473
vt 0.03125 -0.09200473
vt 0.03125 0.23972604
vt -0.03125 0.23972604
vt 0.203125 -0.0234375
vt 0.203125 0.0234375
vt 0 0.03125
vt 0 -0.0625
vt 0.0234375 0.14960976
vt -0.0234375 0.14960976
vt -0.25828287 0.39500362
vt -0.25828287 0.28481025
vt -0.20972154 0.28481025
vt -0.20972152 0.39500362
vt 0.121366285 -0.30014536
vt 0.2265625 -0.203125
vt 0.03125 -0.24999999
vt 0.12136628 -0.30014533
vt 0.25 1.4901161e-08
vt 0.055288453 0.08173077
vt 0.031249996 -0.25
vt -0.046875 0.0234375
vt -0.046875 -0.007812501
vt -0.03125 -0.0078125
vt -0.03125 0.0234375
vt -0.03125 -0.015625
vt -0.03125 0.015625
vt -0.046875 0.015624999
vt -0.046875 -0.015625
vt -0.0078125 0.015625
vt -0.0078125 -0.015625
vt 0.0234375 -0.015625
vt 0.0234375 0.015625
vt -0.03125 -0.0234375
vt -0.03125 0.0078124995
vt -0.046875 0.0078124995
vt -0.046875 -0.0234375
vt 8.195886e-09 -0.1875
vt 1.3659809e-09 -0.03125
vt -0.09375 -0.054687504
vt -0.09374999 -0.1875
vt 0.375 -0.09374997
vt 0.375 2.7319619e-08
vt 0.3125 2.1855694e-08
vt -0.3125 -0.031250022
vt -0.375 -0.031250026
vt -0.37499997 -0.18750003
vt -0.3125 -0.18750001
vt -0.3125 0.15625
vt -0.375 0.1875
vt -0.375 0.0546875
vt -0.3125 0.0859375
vt 2.9812202e-09 -0.3125
vt 3.7265253e-09 -0.375
vt 0.09375001 -0.375
vt 0.3125 -0.09374998
vt 0.09375 -0.3125
vt -0.09375001 0.08593749
vt -1.3659809e-09 0.03125
vt -8.195886e-09 0.1875
vt -0.09375001 0.15625
vt -2.235915e-09 0.1875
vt -3.7265252e-10 0.03125
vt 0.03125 0.046875
vt 0.031249998 0.1875
vt -0.1625 0.125
vt -0.225 0.125
vt -0.225 0.0546875
vt -0.19375 0.0546875
vt -0.1625 0.05859375
vt -0.4375 0.0625
vt -0.5 0.03125
vt -0.5 -0
vt -0.375 0.09375
vt -0.375 -0
vt 0.15625 0.046875
vt 0.21875 0.046875
vt 0.21875 0.125
vt 0.15625 0.125
vt -1.3659809e-08 0.375
vt -1.9123734e-08 0.5
vt -0.03125002 0.5
vt -0.093750015 0.375
vt 0.234375 0.1875
vt 0.1875 -0
vt 0.5 -0
vt 0.5 0.1875
vt -0.09374999 -0.15625
vt 1.365981e-09 -0.03125
vt -0.09374999 -0.08593751
vt -0.3125 -8.4194466e-17
vt -0.3125 0.09375
vt -0.09375001 0.3125
vt -1.0927847e-08 0.3125
vt 0.375 -0.03125
vt 0.3125 -0.03125
vt 0.3125 -0.1875
vt 0.375 -0.1875
vt 0.37499997 0.18750003
vt 0.3125 0.15625001
vt 0.3125 0.08593752
vt 0.375 0.054687526
vt -0.375 -9.9502555e-17
vt -0.09375001 0.1875
vt -0.09375 0.054687496
vt 0.25 0.1875
vt 0.25 -1.9900511e-16
vt 0.5625 -1.6073489e-16
vt 0.515625 0.1875
vt 3.726525e-09 -0.375
vt 5.217135e-09 -0.5
vt 0.06250001 -0.4375
vt 0.21875 0.140625
vt 0.15625 0.140625
vt 0.15625 0.0625
vt 0.21875 0.0625
vt 0.5 3.8247467e-08
vt 0.5 -0.03124996
vt 0.031250004 -0.5
vt -0.225 0.0625
vt -0.1625 0.0625
vt -0.1625 0.12890625
vt -0.19375 0.1328125
vt -0.225 0.1328125
vt 2.235915e-09 -0.1875
vt 0.031250004 -0.1875
vt 0.03125 -0.046875
vt 3.726524e-10 -0.03125
vt -0.078125 0.015625
vt -0.046875 0.015625
vt -0.046875 0.046875
vt -0.078125 0.046875
vt -0.125 0.046875
vt -0.15625 0.046875
vt -0.15625 0.015625
vt -0.125 0.015625
vt 0.125 0.046875
vt 0.15625 0.078125
vt 0.125 0.078125
vt -0.125 0.078125
vt -0.15625 0.078125
vt 0.125 0.015625
vt 0.15625 0.015625
vt 0.078125 0.046875
vt 0.046875 0.046875
vt 0.046875 0.015625
vt 0.078125 0.015625
vt 0.09375 0.046875
vt 0.09375 0.015625
vt -0.09375 0.046875
vt -0.09375 0.078125
vt 0.09375 0.078125
vt -0.09375 0.015625
vt -0.09375 -0.015625
vt -0.015625 -0.015625
vt -0.015625 -0
vt -0.09375 -0
vt -0.1875 -0
vt -0.203125 -0
vt -0.203125 -0.015625
vt -0.1875 -0.015625
vt 0.1875 0.015625
vt 0.203125 0.015625
vt 0.203125 0.09375
vt 0.1875 0.09375
vt -0.1875 0.09375
vt -0.203125 0.09375
vt -0.203125 0.015625
vt -0.1875 0.015625
vt 0.1875 -0.015625
vt 0.203125 -0.015625
vt 0.203125 -0
vt 0.09375 -0
vt 0.015625 -0
vt 0.015625 -0.015625
vt 0.09375 -0.015625
vt -0.234375 -0
vt -0.25 -0
vt -0.25 -0.015625
vt -0.234375 -0.015625
vt 0.234375 0.015625
vt 0.25 0.015625
vt 0.25 0.09375
vt 0.234375 0.09375
vt -0.234375 0.09375
vt -0.25 0.09375
vt -0.25 0.015625
vt -0.234375 0.015625
vt 0.234375 -0.015625
vt 0.25 -0.015625
vt 0.234375 -0
vt 0.12136629 0.30014536
vt 0.22656251 0.203125
vt -0.03125 -0.09200473
vt 0.0625 -0.09200473
vt 0.6770829 1.158381
vt 0.17708308 1.158381
vt 0.17708308 -0.41343898
vt 0.6770829 -0.41343898
vt 0 0.0625
vt 0 -0.03125
vt -0.25828284 0.39500362
vt -0.25828284 0.28481025
vt -0.20972152 0.28481025
vt 0.2265625 -0.20312499

# normals
vn -0.997696124049553 -0.026724003322755884 0.06235600775309706
vn -0.4946983855549952 0.7487326916508035 0.4412174790085092
vn 0 0.6246950475544243 0.7808688094430304
vn 0 0.9761870601839528 0.21693045781865616
vn 0 -1 -0
vn -0 0.39391929857916763 -0.9191450300180578
vn 0.4946983855549952 0.7487326916508035 0.4412174790085092
vn 0.997696124049553 -0.026724003322755884 0.06235600775309706
vn -1 0 -0
vn -0.9146591207600472 0.4001633653325206 0.05716619504750295
vn 0 -0.7071067811865476 0.7071067811865476
vn -0 1 -0
vn 0 -0.7071067811865476 -0.7071067811865476
vn 0.9146591207600472 0.4001633653325206 0.05716619504750295
vn 1 0 -0
vn -0.9977443955508507 0.05051870357219498 -0.0442038656256706
vn -0.9968347230041419 0.053899325848942324 -0.058441403869902674
vn 0 0.38703894473576445 0.9220633683526451
vn -0 -0.9973847959828908 0.07227426057849047
vn 0 0.9934089358711311 -0.11462410798513052
vn 0 -0.4862411453249086 -0.8738246669630706
vn 2.0071756262932571e-16 0.6779636551981091 -0.7350954238943537
vn 0.9597163728756472 0.19048786169929066 -0.20654020959523495
vn 0.990934422259727 0.011420939104074265 -0.13386012449853085
vn 0.9951206344058392 -0.038187473554727215 -0.09097603994034359
vn 0 0 1
vn 0 0 -1
vn 0 0.242535625036333 0.970142500145332
vn 0.39649116027305387 0.46257302031856284 0.7929823205461077
vn 0.42857142857142855 0.2857142857142857 -0.8571428571428571
vn -0.4472135954999579 0.8944271909999159 -0
vn -0.2182178902359924 0.4364357804719848 0.8728715609439696
vn 0 0.24253562503633297 0.9701425001453319
vn -0.42857142857142855 0.2857142857142857 -0.8571428571428571
vn -0.39649116027305387 0.46257302031856284 0.7929823205461077
vn 0.2182178902359924 0.4364357804719848 0.8728715609439696
vn 0.4472135954999579 0.8944271909999159 -0
vn -0.9951206344058451 -0.03818747355486978 -0.09097603994021958
vn -0.9909344222597324 0.01142093910403219 -0.13386012449849471
vn -0.9597163728756556 0.19048786169925183 -0.20654020959523203
vn -1.1126689347920557e-16 -0.9973847959828909 0.07227426057848768
vn 0 0.38703894473744044 0.9220633683519417
vn -0 0.6779636551980397 -0.7350954238944177
vn 0 -0.48624114532556467 -0.8738246669627054
vn 0.9968347230041409 0.053899325848945856 -0.0584414038699176
vn 0.9977443955508507 0.05051870357219498 -0.0442038656256706

o entity0_brush0
usemtl F1/CNRR3_2
f  1/1/1  2/2/1  3/3/1
usemtl Windows/Materials/window_wood_old_01
f  3/4/2  2/5/2  4/6/2
usemtl Windows/Materials/window_wood_old_01
f  5/7/3  4/8/3  2/9/3  6/10/3
usemtl F1/CNRR3_2
f  7/11/4  3/12/4  4/13/4  5/14/4
usemtl 128x128/Dirt/Dirt_07-128x128
f  6/15/5  2/16/5  1/17/5  8/18/5
usemtl F1/CNRR3_2
f  8/19/6  1/20/6  3/21/6  7/22/6
usemtl Windows/Materials/window_wood_old_01
f  7/23/7  5/24/7  6/25/7
usemtl F1/CNRR3_2
f  8/2/8  7/26/8  6/1/8

o entity0_brush1
usemtl F1/CNRR3_2
f  9/27/9  10/28/9  11/1/9
usemtl F1/CNRR3_2
f  11/1/10  10/28/10  12/2/10
usemtl F1/CNRR3_2
f  13/29/11  12/30/11  10/27/11  14/28/11
usemtl F1/CNRR3_2
f  14/31/5  10/32/5  9/33/5  15/34/5
usemtl 128x128/Dirt/Dirt_07-128x128
f  16/17/12  11/18/12  12/15/12  13/16/12
usemtl F1/CNRR3_2
f  15/27/13  9/28/13  11/20/13  16/19/13
usemtl F1/CNRR3_2
f  16/2/14  13/1/14  14/27/14
usemtl F1/CNRR3_2
f  15/28/15  16/2/15  14/27/15

o entity0_brush2
usemtl F1/CNRR3_2
f  17/35/9  18/36/9  19/37/9
usemtl F1/CNRR3_2
f  20/38/16  19/39/16  18/40/16
usemtl F1/CNRR3_2
f  21/41/17  19/39/17  20/38/17
usemtl Industrial/Materials/ac_vent_02
f  22/42/18  18/43/18  17/44/18  23/45/18
usemtl F1/CNRR3_2
f  23/46/19  17/47/19  19/48/19  24/49/19
usemtl F1/CNRR3_2
f  25/50/20  20/51/20  18/52/20  22/53/20
usemtl F1/CNRR3_2
f  24/49/21  19/48/21  21/54/21  26/55/21
usemtl Windows/Materials/window_wood_old_01
f  26/56/22  21/57/22  20/58/22  25/59/22
usemtl F1/CNRR3_2
f  26/60/23  25/61/23  22/36/23
usemtl F1/CNRR3_2
f  24/62/24  26/63/24  22/64/24
usemtl F1/CNRR3_2
f  23/65/25  24/66/25  22/36/25

o entity0_brush3
usemtl newwithe/Facade003_1K-JPG_Color
f  27/67/9  28/68/9  29/69/9  30/70/9
usemtl newwithe/Facade003_1K-JPG_Color
f  31/71/26  29/72/26  28/73/26  32/74/26
usemtl newwithe/Facade003_1K-JPG_Color
f  32/75/5  28/76/5  27/77/5  33/78/5
usemtl newwithe/Facade003_1K-JPG_Color
f  34/77/12  30/78/12  29/75/12  31/76/12
usemtl newwithe/Facade003_1K-JPG_Color
f  33/73/27  27/74/27  30/71/27  34/72/27
usemtl newwithe/Facade003_1K-JPG_Color
f  34/79/15  31/80/15  32/81/15  33/82/15

o entity0_brush4
usemtl F1/CNRR3_2
f  35/83/9  36/84/9  37/85/9  38/86/9
usemtl F1/CNRR3_2
f  37/87/28  36/88/28  39/89/28
usemtl F1/CNRR3_2
f  39/90/5  36/91/5  35/92/5  40/93/5
usemtl F1/CNRR3_2
f  41/94/12  38/95/12  37/96/12  42/97/12
usemtl F1/CNRR3_2
f  40/98/27  35/99/27  38/100/27
usemtl F1/CNRR3_2
f  42/101/29  37/87/29  39/89/29
usemtl F1/CNRR3_2
f  40/98/30  38/100/30  41/102/30
usemtl F1/CNRR3_2
f  42/103/15  39/104/15  40/105/15  41/106/15

o entity0_brush5
usemtl F1/CNRR3_2
f  43/107/9  44/108/9  45/109/9  46/110/9
usemtl F1/CNWN2_1
f  47/111/31  46/112/31  45/113/31  48/114/31  49/115/31
usemtl F1/CNRR3_2
f  48/116/32  45/117/32  44/118/32
usemtl F1/CNRR3_2
f  49/119/33  48/116/33  44/118/33  50/120/33
usemtl F1/CNVW1_3
f  50/121/5  44/122/5  43/123/5  51/124/5
usemtl F1/CNRR3_2
f  51/125/27  43/126/27  46/127/27  47/128/27
usemtl 128x128/Dirt/Dirt_07-128x128
f  49/129/15  50/130/15  51/131/15  47/132/15

o entity0_brush6
usemtl F1/CNRR3_2
f  52/133/9  53/83/9  54/134/9  55/135/9
usemtl F1/CNRR3_2
f  53/136/34  52/137/34  56/119/34
usemtl F1/CNRR3_2
f  55/138/35  54/139/35  57/128/35
usemtl F1/CNRR3_2
f  57/128/28  54/139/28  58/125/28
usemtl F1/CNRR3_2
f  58/140/5  54/141/5  53/142/5  59/143/5
usemtl F1/CNRR3_2
f  56/144/12  52/145/12  55/146/12  57/147/12
usemtl F1/CNRR3_2
f  59/148/27  53/136/27  56/119/27
usemtl F1/CNRR3_2
f  56/149/15  57/150/15  58/104/15  59/105/15

o entity0_brush7
usemtl 128x128/Dirt/Dirt_07-128x128
f  60/151/9  61/152/9  62/153/9  63/154/9
usemtl F1/CNRR3_2
f  63/100/33  62/155/33  64/156/33  65/157/33
usemtl F1/CNVW1_3
f  64/158/5  62/159/5  61/160/5  66/161/5
usemtl F1/CNRR3_2
f  66/162/27  61/88/27  60/87/27  67/163/27
usemtl F1/CNRR3_2
f  68/164/36  65/157/36  64/156/36
usemtl F1/CNWN2_1
f  67/165/37  60/166/37  63/167/37  65/168/37  68/169/37
usemtl F1/CNRR3_2
f  66/170/15  67/171/15  68/172/15  64/173/15

o entity0_brush8
usemtl F1/CNTC1_1
f  69/174/9  70/175/9  71/176/9  72/177/9
usemtl F1/CNTC1_1
f  73/178/26  71/179/26  70/180/26  74/181/26
usemtl F1/CNTC1_1
f  74/182/5  70/121/5  69/183/5  75/184/5
usemtl F1/CNTC1_1
f  76/185/12  72/186/12  71/179/12  73/178/12
usemtl F1/CNTC1_1
f  75/187/27  69/188/27  72/121/27  76/182/27
usemtl F1/CNTC1_1
f  76/189/15  73/190/15  74/191/15  75/192/15

o entity0_brush9
usemtl F1/CNTC1_1
f  77/174/9  78/175/9  79/176/9  80/177/9
usemtl F1/CNTC1_1
f  81/182/26  79/193/26  78/194/26  82/187/26
usemtl F1/CNTC1_1
f  82/178/5  78/195/5  77/196/5  83/185/5
usemtl F1/CNTC1_1
f  84/184/12  80/197/12  79/193/12  81/182/12
usemtl F1/CNTC1_1
f  83/181/27  77/198/27  80/195/27  84/178/27
usemtl F1/CNTC1_1
f  84/189/15  81/190/15  82/191/15  83/192/15

o entity0_brush10
usemtl F1/CNVW1_2
f  85/199/9  86/200/9  87/201/9  88/202/9
usemtl F1/CNVW1_2
f  89/203/26  87/204/26  86/205/26  90/206/26
usemtl F1/CNVW1_2
f  90/207/5  86/208/5  85/209/5  91/210/5
usemtl F1/CNVW1_2
f  92/211/12  88/212/12  87/213/12  89/214/12
usemtl F1/CNVW1_2
f  91/215/27  85/216/27  88/217/27  92/130/27
usemtl F1/CNVW1_2
f  92/218/15  89/219/15  90/220/15  91/221/15

o entity0_brush11
usemtl F1/CNVW1_2
f  93/199/9  94/200/9  95/201/9  96/202/9
usemtl F1/CNVW1_2
f  97/222/26  95/223/26  94/224/26  98/225/26
usemtl F1/CNVW1_2
f  98/226/5  94/227/5  93/228/5  99/229/5
usemtl F1/CNVW1_2
f  100/230/12  96/231/12  95/232/12  97/233/12
usemtl F1/CNVW1_2
f  99/234/27  93/235/27  96/36/27  100/236/27
usemtl F1/CNVW1_2
f  100/218/15  97/219/15  98/220/15  99/221/15

o entity0_brush12
usemtl F1/CNVW1_2
f  101/199/9  102/200/9  103/201/9  104/202/9
usemtl F1/CNVW1_2
f  105/222/26  103/223/26  102/224/26  106/225/26
usemtl F1/CNVW1_2
f  106/226/5  102/227/5  101/228/5  107/229/5
usemtl F1/CNVW1_2
f  108/230/12  104/231/12  103/232/12  105/233/12
usemtl F1/CNVW1_2
f  107/234/27  101/235/27  104/36/27  108/236/27
usemtl F1/CNVW1_2
f  108/218/15  105/219/15  106/220/15  107/221/15

o entity0_brush13
usemtl F1/CNVW1_2
f  109/199/9  110/200/9  111/201/9  112/202/9
usemtl F1/CNVW1_2
f  113/203/26  111/204/26  110/205/26  114/206/26
usemtl F1/CNVW1_2
f  114/207/5  110/208/5  109/209/5  115/210/5
usemtl F1/CNVW1_2
f  116/211/12  112/212/12  111/213/12  113/214/12
usemtl F1/CNVW1_2
f  115/215/27  109/216/27  112/217/27  116/130/27
usemtl F1/CNVW1_2
f  116/218/15  113/219/15  114/220/15  115/221/15

o entity0_brush14
usemtl F1/CNRR3_2
f  117/36/38  118/37/38  119/35/38
usemtl F1/CNRR3_2
f  118/39/39  117/40/39  120/41/39
usemtl F1/CNRR3_2
f  120/237/40  117/36/40  121/238/40
usemtl F1/CNRR3_2
f  122/239/41  119/240/41  118/48/41  123/49/41
usemtl Industrial/Materials/ac_vent_02
f  124/241/42  117/242/42  119/243/42  122/244/42
usemtl F1/CNRR3_2
f  125/50/20  121/51/20  117/245/20  124/246/20
usemtl Windows/Materials/window_wood_old_01
f  126/247/43  120/248/43  121/249/43  125/59/43
usemtl F1/CNRR3_2
f  123/49/44  118/48/44  120/54/44  126/55/44
usemtl F1/CNRR3_2
f  123/62/45  126/63/45  125/250/45
usemtl F1/CNRR3_2
f  123/62/46  125/250/46  124/64/46
usemtl F1/CNRR3_2
f  123/66/15  124/36/15  122/65/15

