mtllib m1legs.mtl
# vertices
v -56 -24 -72
v -56 -24 16
v -56 8 32
v -56 8 -56
v 8 8 32
v 8 -24 16
v 8 -24 -72
v 8 8 -56
v -56 8 24
v -56 8 32
v -56 16 28
v -56 16 24
v 8 16 28
v 8 8 32
v 8 8 24
v 8 16 24
v -72 -24 -24
v -72 -24 -8
v -72 -8 -8
v -72 -8 -24
v -56 -8 -8
v -56 -24 -8
v -56 -24 -24
v -56 -8 -24
v -80 -16 -58
v -80 -16 26
v -80 8 14
v -80 8 -46
v -72 8 14
v -72 -16 26
v -72 -16 -58
v -72 8 -46
v -80 -40 -46
v -80 -40 14
v -80 -16 26
v -80 -16 -58
v -72 -16 26
v -72 -40 14
v -72 -40 -46
v -72 -16 -58
v 24 -16 -58
v 24 -16 26
v 24 8 14
v 24 8 -46
v 32 8 14
v 32 -16 26
v 32 -16 -58
v 32 8 -46
v 24 -40 -46
v 24 -40 14
v 24 -16 26
v 24 -16 -58
v 32 -16 26
v 32 -40 14
v 32 -40 -46
v 32 -16 -58
v 0 8 -32
v 0 8 24
v 0 16 24
v 0 16 -32
v 8 16 24
v 8 8 24
v 8 8 -32
v 8 16 -32
v -48 8 -48
v -48 8 -32
v -48 16 -32
v -48 16 -40
v 8 16 -32
v 8 8 -32
v 8 8 -48
v 8 16 -40
v -18 -16 -96
v -18 -24 -56
v -18 8 -56
v -18 0 -96
v -8 8 -56
v -8 -24 -56
v -16 -16 -96
v -16 0 -96
v -32 -16 -96
v -40 -24 -56
v -40 8 -56
v -32 0 -96
v -30 8 -56
v -30 -24 -56
v -30 -16 -96
v -30 0 -96
v -30 -16 -96
v -30 -18 -86
v -30 -14 -86
v -30 -14 -96
v -18 -14 -86
v -18 -18 -86
v -18 -14 -96
v -18 -16 -96
v -30 -2 -96
v -30 -2 -86
v -30 2 -86
v -30 0 -96
v -18 2 -86
v -18 -2 -86
v -18 -2 -96
v -18 0 -96
v -30 -18 -86
v -30 -24 -56
v -30 8 -56
v -30 2 -86
v -18 8 -56
v -18 -24 -56
v -18 -18 -86
v -18 2 -86
v -56 8 -48
v -56 8 24
v -56 16 24
v -56 16 -40
v -48 16 24
v -48 8 24
v -48 8 -48
v -48 16 -40
v 8 -24 -24
v 8 -24 -8
v 8 -8 -8
v 8 -8 -24
v 24 -8 -8
v 24 -24 -8
v 24 -24 -24
v 24 -8 -24

# texture coordinates
vt -0.25 0.28125
vt -0.25 -0.0625
vt -0.125 -0.125
vt -0.125 0.21875
vt -0.125 0.125
vt -0.25 0.125
vt -0.25 -0.125
vt -0.0625 0.125
vt -0.062499996 -0.125
vt 0.28125 -0.125
vt 0.28125 0.125
vt 0.21875 -0.125
vt 0.21875 0.125
vt -0.125 -0.21875
vt -0.25 0.0625
vt -0.25 -0.28125
vt -0.125 -0.09375
vt -0.09375 -0.109375
vt -0.09375 -0.09375
vt -0.09375 -0.125
vt -0.09375 0.125
vt -0.0625 -0.125
vt -0.03125 -0.125
vt -0.03125 0.125
vt -0.046875 0.125
vt -0.046875 -0.125
vt -0.0625 -0.1875
vt 0.1875 -0.1875
vt 0.1875 -0.15625
vt -0.0625 -0.15625
vt -0.09375 0.09375
vt -0.09375 0.109375
vt -0.125 0.09375
vt -0.03125 -0.09375
vt -0.0625 -0.09375
vt 0.0625 0.03125
vt 0.09375 0.03125
vt 0.09375 0.0625
vt 0.0625 0.0625
vt -0.0625 0.0625
vt -0.09375 0.0625
vt -0.09375 0.03125
vt -0.0625 0.03125
vt 0.0625 -0.125
vt 0.09375 -0.125
vt 0.09375 -0.09375
vt 0.0625 -0.09375
vt 0.03125 -0.09375
vt 0.03125 -0.125
vt 0.3645833 0.375
vt -0.07291669 0.37499997
vt -0.010416679 0.24999999
vt 0.3020833 0.25
vt -0.15625 -0.24999999
vt -0.19791666 -0.24999999
vt -0.19791666 -0.375
vt -0.15625 -0.375
vt 0.15625 -0.1875
vt 0.19791666 -0.1875
vt 0.19791666 0.25
vt 0.15625 0.25
vt -0.15625 0.1875
vt -0.19791666 0.1875
vt -0.19791666 -0.125
vt -0.15625 -0.125
vt 0.15625 -0.375
vt 0.19791666 -0.375
vt 0.19791666 -0.24999999
vt 0.15625 -0.24999999
vt 0.1875 -0.24999999
vt -0.125 -0.24999999
vt -0.1875 -0.375
vt 0.25 -0.375
vt 0.5625 -0.23958334
vt 0.5625 0.07291666
vt 0.43750003 0.13541666
vt 0.4375 -0.30208334
vt -0.15625 -0.37499985
vt -0.11458334 -0.37499985
vt -0.11458334 -0.24999987
vt -0.15625 -0.24999987
vt -0.11458334 -0.125
vt -0.11458334 0.1875
vt 0.11458334 0.25
vt 0.11458334 -0.1875
vt 0.15625 -0.24999987
vt 0.11458334 -0.24999987
vt 0.11458334 -0.37499985
vt 0.15625 -0.37499985
vt -0.25 -0.37499985
vt 0.1875 -0.37499985
vt 0.125 -0.24999987
vt -0.1875 -0.24999987
vt -0.12499999 -0.24999999
vt 0.15625003 -0.24999999
vt 0.11458336 -0.24999999
vt 0.11458336 -0.375
vt 0.15625003 -0.375
vt 0.15625003 0.25
vt 0.11458336 0.25
vt 0.11458336 -0.1875
vt 0.15625003 -0.1875
vt -0.15625003 -0.12499999
vt -0.11458336 -0.12499999
vt -0.11458336 0.1875
vt -0.15625003 0.1875
vt -0.15625003 -0.375
vt -0.11458336 -0.375
vt -0.11458336 -0.24999999
vt -0.15625003 -0.24999999
vt -0.17708334 0.25
vt 0.13541666 0.25000003
vt 0.19791666 0.37500003
vt -0.23958334 0.375
vt 0.12499999 -0.24999987
vt -0.84375006 -0.37499985
vt -0.8020834 -0.37499985
vt -0.8020834 -0.24999987
vt -0.84375006 -0.24999987
vt 0.84375006 0.1875
vt 0.8020834 0.1875
vt 0.8020834 -0.12499999
vt 0.84375006 -0.12499999
vt -0.84375006 -0.1875
vt -0.8020834 -0.1875
vt -0.8020834 0.25
vt -0.84375006 0.25
vt 0.84375006 -0.24999987
vt 0.8020834 -0.24999987
vt 0.8020834 -0.37499985
vt 0.84375006 -0.37499985
vt -0.3125 -0.30208334
vt -0.3125 0.13541666
vt -0.4375 0.07291666
vt -0.4375 -0.23958334
vt -0.03125 0.09375
vt 0.1875 0.09375
vt 0.1875 0.125
vt 0.1875 -0.125
vt 0.1875 -0.09375
vt -0.125 0.1875
vt -0.09375 0.15625
vt 0.25 -0.09375
vt 0.25 0.125
vt 0.21875 0.09375
vt -0.09375 -0.15625
vt -0.125 -0.1875
vt 0.375 -0.28125
vt 0.21875 -0.3125
vt 0.21875 -0.1875
vt 0.375 -0.21875
vt 0.0625 -0.1875
vt 0.0234375 -0.1875
vt 0.0234375 -0.3125
vt 0.0625 -0.3125
vt -0.15625 -0.062499993
vt -0.15625 -0.023437493
vt -0.3125 -0.0234375
vt -0.3125 -0.03125
vt 0.03125 0.375
vt 0.0234375 0.375
vt 0.0234375 0.21875
vt 0.0625 0.21875
vt -0.03125 -0.28125
vt -0.0234375 -0.28125
vt -0.0234375 -0.21875
vt -0.03125 -0.21875
vt 0.4375 -0.21875
vt 0.28125 -0.1875
vt 0.28125 -0.3125
vt 0.4375 -0.28125
vt -0.3125 -0.28125
vt -0.15625 -0.3125
vt -0.15625 -0.1875
vt -0.3125 -0.21875
vt -0.0234375 -0.1875
vt -0.0625 -0.3125
vt -0.0234375 -0.3125
vt -0.21875 0.023437493
vt -0.21875 0.062499985
vt -0.375 0.031249985
vt -0.375 0.023437485
vt 0.0390625 0.375
vt 0 0.21875
vt 0.0390625 0.21875
vt 0.0234375 -0.28125
vt 0.03125 -0.28125
vt 0.03125 -0.21875
vt 0.0234375 -0.21875
vt -0.375 -0.21875
vt -0.21875 -0.1875
vt -0.21875 -0.3125
vt -0.375 -0.28125
vt -0.3359375 -0.2890625
vt -0.3359375 -0.2734375
vt -0.375 -0.2734375
vt 0.0234375 -0.2734375
vt -0.0234375 -0.2734375
vt -0.0234375 -0.2890625
vt 0.0234375 -0.2890625
vt -0.0234375 0.375
vt 0.0234375 0.3359375
vt -0.0234375 0.3359375
vt -0.2734375 -0.02343753
vt -0.2734375 0.02343747
vt -0.3125 0.02343747
vt -0.3125 -0.02343753
vt 0.3359375 -0.2890625
vt 0.375 -0.2734375
vt 0.3359375 -0.2734375
vt -0.375 -0.2265625
vt -0.3359375 -0.2265625
vt -0.3359375 -0.2109375
vt 0.0234375 -0.2109375
vt -0.0234375 -0.2109375
vt -0.0234375 -0.2265625
vt 0.0234375 -0.2265625
vt 0.0859375 0.375
vt 0.0390625 0.3359375
vt 0.0859375 0.3359375
vt 0.3359375 -0.2109375
vt 0.3359375 -0.2265625
vt 0.375 -0.2265625
vt -0.15625 0.023437507
vt -0.2734375 0.0234375
vt -0.2734375 -0.0234375
vt 0.0859375 0.21875
vt -0.031250004 -0.09375
vt -0.031250004 -0.125
vt 0.25 -0.125

# normals
vn -1 0 0
vn 0 -0.4472135954999579 0.8944271909999159
vn 0 -1 -0
vn -0 1 -0
vn -0 0.4472135954999579 -0.8944271909999159
vn 1 0 -0
vn 0 0.4472135954999579 0.8944271909999159
vn 0 -0 -1
vn 0 0 1
vn 0 -0.4472135954999579 -0.8944271909999159
vn -0 0.7071067811865476 -0.7071067811865476
vn 0 -0.9805806756909202 -0.19611613513818404
vn 0 0.9805806756909201 -0.19611613513818404
vn 0.9805806756909202 0 -0.19611613513818404
vn -0.9805806756909202 0 -0.19611613513818404
vn 0 -0.9805806756909201 -0.19611613513818404
vn -0 0.9805806756909202 -0.19611613513818404
vn 0 -0.9805806756909201 -0.19611613513818402
vn 0 0.9805806756909201 -0.19611613513818402
vn -0 0.7071067811865475 -0.7071067811865475

o entity0_brush0
usemtl F1/CNRR3_2
f  1/1/1  2/2/1  3/3/1  4/4/1
usemtl F1/CNRR3_2
f  5/3/2  3/5/2  2/6/2  6/7/2
usemtl F1/CNRR3_2
f  6/8/3  2/9/3  1/10/3  7/11/3
usemtl F1/CNRR3_2
f  8/12/4  4/13/4  3/5/4  5/3/4
usemtl F1/CNRR3_2
f  7/6/5  1/7/5  4/3/5  8/5/5
usemtl F1/CNRR3_2
f  8/14/6  5/5/6  6/15/6  7/16/6

o entity0_brush1
usemtl F1/CNRR3_2
f  9/17/1  10/3/1  11/18/1  12/19/1
usemtl F1/CNRR3_2
f  13/20/7  11/21/7  10/5/7  14/3/7
usemtl F1/CNRR3_2
f  14/8/3  10/22/3  9/23/3  15/24/3
usemtl F1/CNRR3_2
f  16/23/4  12/24/4  11/25/4  13/26/4
usemtl F1/CNRR3_2
f  15/27/8  9/28/8  12/29/8  16/30/8
usemtl F1/CNRR3_2
f  16/31/6  13/32/6  14/5/6  15/33/6

o entity0_brush2
usemtl F1/CNVV1_1
f  17/22/1  18/23/1  19/34/1  20/35/1
usemtl F1/CNVV1_1
f  21/35/9  19/19/9  18/20/9  22/22/9
usemtl F1/CNVV1_1
f  22/36/3  18/37/3  17/38/3  23/39/3
usemtl F1/CNVV1_1
f  24/40/4  20/41/4  19/42/4  21/43/4
usemtl F1/CNVV1_1
f  23/44/8  17/45/8  20/46/8  24/47/8
usemtl F1/CNVV1_1
f  24/47/6  21/48/6  22/49/6  23/44/6

o entity0_brush3
usemtl F1/CNRR3_2
f  25/50/1  26/51/1  27/52/1  28/53/1
usemtl F1/CNRR3_2
f  29/54/7  27/55/7  26/56/7  30/57/7
usemtl F1/CNRR3_2
f  30/58/3  26/59/3  25/60/3  31/61/3
usemtl F1/CNRR3_2
f  32/62/4  28/63/4  27/64/4  29/65/4
usemtl F1/CNRR3_2
f  31/66/5  25/67/5  28/68/5  32/69/5
usemtl F1/CNRR3_2
f  32/70/6  29/71/6  30/72/6  31/73/6

o entity0_brush4
usemtl F1/CNRR3_2
f  33/74/1  34/75/1  35/76/1  36/77/1
usemtl F1/CNRR3_2
f  37/78/2  35/79/2  34/80/2  38/81/2
usemtl F1/CNRR3_2
f  38/65/3  34/82/3  33/83/3  39/62/3
usemtl F1/CNRR3_2
f  40/61/4  36/84/4  35/85/4  37/58/4
usemtl F1/CNRR3_2
f  39/86/10  33/87/10  36/88/10  40/89/10
usemtl F1/CNRR3_2
f  40/90/6  37/91/6  38/92/6  39/93/6

o entity0_brush5
usemtl F1/CNRR3_2
f  41/72/1  42/73/1  43/70/1  44/94/1
usemtl F1/CNRR3_2
f  45/95/7  43/96/7  42/97/7  46/98/7
usemtl F1/CNRR3_2
f  46/99/3  42/100/3  41/101/3  47/102/3
usemtl F1/CNRR3_2
f  48/103/4  44/104/4  43/105/4  45/106/4
usemtl F1/CNRR3_2
f  47/107/5  41/108/5  44/109/5  48/110/5
usemtl F1/CNRR3_2
f  48/111/6  45/112/6  46/113/6  47/114/6

o entity0_brush6
usemtl F1/CNRR3_2
f  49/115/1  50/93/1  51/90/1  52/91/1
usemtl F1/CNRR3_2
f  53/116/2  51/117/2  50/118/2  54/119/2
usemtl F1/CNRR3_2
f  54/120/3  50/121/3  49/122/3  55/123/3
usemtl F1/CNRR3_2
f  56/124/4  52/125/4  51/126/4  53/127/4
usemtl F1/CNRR3_2
f  55/128/10  49/129/10  52/130/10  56/131/10
usemtl F1/CNRR3_2
f  56/132/6  53/133/6  54/134/6  55/135/6

o entity0_brush7
usemtl F1/CNRR3_2
f  57/5/1  58/17/1  59/19/1  60/21/1
usemtl F1/CNRR3_2
f  61/20/9  59/19/9  58/17/9  62/3/9
usemtl F1/CNRR3_2
f  62/24/3  58/136/3  57/137/3  63/138/3
usemtl F1/CNRR3_2
f  64/139/4  60/140/4  59/34/4  61/23/4
usemtl F1/CNRR3_2
f  63/5/8  57/33/8  60/31/8  64/21/8
usemtl F1/CNRR3_2
f  64/20/6  61/31/6  62/33/6  63/3/6

o entity0_brush8
usemtl F1/CNRR3_2
f  65/141/1  66/5/1  67/21/1  68/142/1
usemtl F1/CNRR3_2
f  69/20/9  67/31/9  66/33/9  70/3/9
usemtl F1/CNRR3_2
f  70/138/3  66/140/3  65/143/3  71/144/3
usemtl F1/CNRR3_2
f  72/12/4  68/145/4  67/137/4  69/139/4
usemtl F1/CNRR3_2
f  71/5/11  65/17/11  68/19/11  72/21/11
usemtl F1/CNRR3_2
f  72/146/6  69/20/6  70/3/6  71/147/6

o entity0_brush9
usemtl newwithe/building_10_emiss
f  73/148/1  74/149/1  75/150/1  76/151/1
usemtl newwithe/building_10_emiss
f  77/152/9  75/153/9  74/154/9  78/155/9
usemtl F1/CNRR3_2
f  78/156/12  74/157/12  73/158/12  79/159/12
usemtl F1/CNRR3_2
f  80/160/13  76/161/13  75/162/13  77/163/13
usemtl newwithe/building_10_emiss
f  79/164/8  73/165/8  76/166/8  80/167/8
usemtl F1/CNRR3_2
f  80/168/14  77/169/14  78/170/14  79/171/14

o entity0_brush10
usemtl F1/CNRR3_2
f  81/172/15  82/173/15  83/174/15  84/175/15
usemtl newwithe/building_10_emiss
f  85/176/9  83/27/9  82/177/9  86/178/9
usemtl F1/CNRR3_2
f  86/179/16  82/180/16  81/181/16  87/182/16
usemtl F1/CNRR3_2
f  88/183/17  84/160/17  83/184/17  85/185/17
usemtl newwithe/building_10_emiss
f  87/186/8  81/187/8  84/188/8  88/189/8
usemtl newwithe/building_10_emiss
f  88/190/6  85/191/6  86/192/6  87/193/6

o entity0_brush11
usemtl newwithe/building_10_emiss
f  89/193/1  90/194/1  91/195/1  92/196/1
usemtl newwithe/building_10_emiss
f  93/197/9  91/198/9  90/199/9  94/200/9
usemtl newwithe/building_10_emiss
f  95/201/4  92/161/4  91/202/4  93/203/4
usemtl F1/CNRR3_2
f  94/204/18  90/205/18  89/206/18  96/207/18
usemtl newwithe/building_10_emiss
f  96/165/8  89/186/8  92/197/8  95/198/8
usemtl newwithe/building_10_emiss
f  94/208/6  96/148/6  95/209/6  93/210/6

o entity0_brush12
usemtl newwithe/building_10_emiss
f  97/211/1  98/212/1  99/213/1  100/190/1
usemtl newwithe/building_10_emiss
f  101/214/9  99/215/9  98/216/9  102/217/9
usemtl newwithe/building_10_emiss
f  102/202/3  98/203/3  97/201/3  103/161/3
usemtl F1/CNRR3_2
f  104/218/19  100/183/19  99/219/19  101/220/19
usemtl newwithe/building_10_emiss
f  103/216/8  97/217/8  100/189/8  104/166/8
usemtl newwithe/building_10_emiss
f  104/151/6  101/221/6  102/222/6  103/223/6

o entity0_brush13
usemtl newwithe/building_10_emiss
f  105/194/1  106/192/1  107/191/1  108/213/1
usemtl newwithe/building_10_emiss
f  109/153/9  107/176/9  106/178/9  110/154/9
usemtl F1/CNRR3_2
f  110/157/12  106/224/12  105/225/12  111/226/12
usemtl F1/CNRR3_2
f  112/220/17  108/219/17  107/185/17  109/227/17
usemtl newwithe/building_10_emiss
f  111/200/8  105/199/8  108/215/8  112/214/8
usemtl newwithe/building_10_emiss
f  112/221/6  109/150/6  110/149/6  111/208/6

o entity0_brush14
usemtl F1/CNRR3_2
f  113/141/1  114/17/1  115/19/1  116/142/1
usemtl F1/CNRR3_2
f  117/31/9  115/21/9  114/5/9  118/33/9
usemtl F1/CNRR3_2
f  118/228/3  114/229/3  113/230/3  119/143/3
usemtl F1/CNRR3_2
f  120/145/4  116/13/4  115/24/4  117/136/4
usemtl F1/CNRR3_2
f  119/17/20  113/3/20  116/20/20  120/19/20
usemtl F1/CNRR3_2
f  120/146/6  117/31/6  118/33/6  119/147/6

o entity0_brush15
usemtl F1/CNVV1_1
f  121/49/1  122/44/1  123/47/1  124/48/1
usemtl F1/CNVV1_1
f  125/46/9  123/47/9  122/44/9  126/45/9
usemtl F1/CNVV1_1
f  126/38/3  122/39/3  121/36/3  127/37/3
usemtl F1/CNVV1_1
f  128/42/4  124/43/4  123/40/4  125/41/4
usemtl F1/CNVV1_1
f  127/20/8  121/22/8  124/35/8  128/19/8
usemtl F1/CNVV1_1
f  128/34/6  125/35/6  126/22/6  127/23/6

