mtllib enemy2.mtl
# vertices
v -32 0 -24
v -32 0 -8
v -32 24 -0
v -32 24 -32
v 0 24 -0
v -16 0 -8
v -16 0 -24
v 0 24 -32
v -32 16 -24
v -32 16 -8
v -16 48 -8
v -16 48 -24
v 8 48 -8
v -8 16 -8
v -8 16 -24
v 8 48 -24
v -16 16 -24
v -16 0 -24
v -16 0 -8
v -16 16 -8
v 24 8 -8
v 48 0 -8
v 48 0 -24
v 24 8 -24
v 8 0 -8
v 8 0 8
v 8 8 -0
v 8 8 -8
v 24 8 -0
v 24 0 8
v 24 0 -8
v 24 8 -8
v 8 0 -40
v 8 0 -24
v 8 8 -24
v 8 8 -32
v 24 8 -24
v 24 0 -24
v 24 0 -40
v 24 8 -32
v 8 -16 -0
v 8 -16 24
v 8 0 24
v 8 0 -16
v 24 0 24
v 24 -16 24
v 24 -16 -0
v 24 0 -16
v -32 -24 -56
v -32 -24 -40
v -32 -16 -40
v -32 -16 -56
v 64 -16 -40
v 64 -24 -40
v 64 -24 -56
v 64 -16 -56
v 8 -16 -56
v 8 -16 -32
v 8 0 -16
v 8 0 -56
v 24 0 -16
v 24 -16 -32
v 24 -16 -56
v 24 0 -56
v -32 0 -56
v -32 0 -40
v -32 8 -40
v -32 8 -56
v 64 8 -40
v 64 0 -40
v 64 0 -56
v 64 8 -56
v 64 -24 -56
v 64 -24 -40
v 64 8 -40
v 64 8 -56
v 80 0 -40
v 72 8 -40
v 72 -24 -40
v 80 -16 -40
v 72 -24 -56
v 72 8 -56
v 80 -16 -56
v 80 0 -56
v -48 -16 -56
v -48 -16 -40
v -48 0 -40
v -48 0 -56
v -40 -24 -56
v -40 -24 -40
v -40 8 -40
v -40 8 -56
v -32 8 -40
v -32 -24 -40
v -32 -24 -56
v -32 8 -56
v -16 24 -8
v -16 24 -0
v -16 32 -0
v -16 48 -8
v 0 32 -0
v 0 24 -0
v 0 48 -8
v 0 24 -8
v -16 24 -32
v -16 24 -24
v -16 48 -24
v -16 32 -32
v 0 48 -24
v 0 24 -24
v 0 24 -32
v 0 32 -32
v -32 0 8
v -32 0 24
v -32 8 24
v -32 8 8
v 64 8 24
v 64 0 24
v 64 0 8
v 64 8 8
v -32 -24 8
v -32 -24 24
v -32 -16 24
v -32 -16 8
v 64 -16 24
v 64 -24 24
v 64 -24 8
v 64 -16 8
v -48 -16 8
v -48 -16 24
v -48 0 24
v -48 0 8
v -40 -24 8
v -40 -24 24
v -40 8 24
v -40 8 8
v -32 8 24
v -32 -24 24
v -32 -24 8
v -32 8 8
v 64 -24 8
v 64 -24 24
v 64 8 24
v 64 8 8
v 80 0 24
v 72 8 24
v 72 -24 24
v 80 -16 24
v 72 -24 8
v 72 8 8
v 80 -16 8
v 80 0 8

# texture coordinates
vt -0.375 -0.03125
vt -0.125 -0.03125
vt 0 0.0625
vt -0.5 0.0625
vt -0.5 -0.03125
vt -0.25 -0.03125
vt 0.25 0.03125
vt 0.5 0.03125
vt 0.5 0.09375
vt 0.25 0.09375
vt 0 0.125
vt -0.5 0.125
vt -0.5 -0
vt 0 -0
vt 0.25 -0.03125
vt 0.5 -0.03125
vt 0.5 0.0625
vt 0.5 0.033653848
vt 0 0.033653848
vt 0.125 -0.060096152
vt 0.375 -0.060096152
vt -0.75 0.15178572
vt -0.25 0.15178572
vt -0.25 0.33035713
vt -0.75 0.33035713
vt 0.5 0.33035713
vt 0 0.15178572
vt 0 0.04464286
vt 0.75 0.04464286
vt 0.75 0.13392857
vt 0 0.13392857
vt 0.5 0.13392857
vt -0.25 0.13392857
vt -0.25 0.04464286
vt 0.5 0.04464286
vt 0.75 0.15178572
vt 0.25 0.33035713
vt -0.5 0.33035713
vt 0.90625 0.36587802
vt 0.40625 0.36587802
vt 0.40625 0.18730658
vt 0.90625 0.18730658
vt -0.1875 0.125
vt -0.1875 -0
vt -0.0625 -0
vt -0.0625 0.125
vt 0.375 0.03125
vt -0.25 0.0625
vt -0.25 -0
vt 0.75 -0
vt -0.375 0.0625
vt 0.125 0.0625
vt 0.125 0.1875
vt -0.375 0.1875
vt -0.75 -0
vt 0.25 -0
vt 0.25 0.0625
vt -0.375 0.03125
vt 0.828125 -0.1953125
vt 0.203125 -0.1953125
vt 0.203125 -0.2578125
vt 0.828125 -0.2578125
vt 0.4375 0.30859375
vt 0.4375 0.21484375
vt 0.1875 0.21484375
vt 0.1875 0.30859375
vt -0.125 -0
vt 0.125 -0
vt 0 0.03125
vt -0.125 0.03125
vt 0.125 0.03125
vt 0.375 -0
vt -0.375 -0
vt -0.625 -0
vt -0.5 0.03125
vt -0.375 0.09375
vt -0.125 0.09375
vt -0.125 0.15625
vt -0.375 0.15625
vt 0.375 0.125
vt 0.125 0.125
vt 0.125 0.09375
vt 0.375 0.09375
vt 0.625 -0
vt 0.24999987 0.08787099
vt -0.5000001 0.08787098
vt -0.5000001 -0.018454468
vt 0.7499999 -0.018454446
vt 0.125 -0.0625
vt 0.375 -0.0625
vt -0.1875 -0.1875
vt -0.0625 -0.1875
vt 0.1875 0.125
vt 0.0625 0.125
vt 0.0625 -0.1875
vt 0.1875 -0.1875
vt -0.1875 -0.0625
vt -0.0625 -0.0625
vt -0.0625 0.0625
vt -0.1875 0.0625
vt -0.2500001 -0.018454464
vt 0.9999999 -0.018454442
vt 0.9999999 0.087871
vt -0.3125 -0.1875
vt -0.1875 -0.125
vt -0.3125 -0.125
vt -1.7500001 0.087870955
vt 1.2499999 0.08787101
vt 1.2499999 0.14103374
vt -1.7500001 0.14103368
vt -1.1874999 -2.2499995
vt -1.1875006 1.5000002
vt -1.8125006 1.5000002
vt -1.8124999 -2.2499998
vt 1.9999999 0.19419646
vt 2 -0.4437562
vt 1.5 -0.44375622
vt 1.4999999 0.19419646
vt 3.6666667 0.5
vt -1.3333333 0.5
vt -1.3333333 0.34375
vt 3.6666667 0.34375
vt 0.3125 -0.125
vt 0.1875 -0.125
vt 0.3125 -0.1875
vt 2 0.087871
vt 1.25 0.087870985
vt 0.75 -0.018454464
vt 2 -0.018454442
vt -0.875 -0.0625
vt -0.625 -0.0625
vt -0.875 -0
vt -1.5 -0.018454468
vt -0.25 -0.018454446
vt -0.75 0.087870985
vt -1.5 0.08787097
vt -0.3125 -0
vt -0.3125 0.0625
vt -1.7500001 -0.071617216
vt 1.2499999 -0.071617156
vt 1.2499999 -0.018454436
vt -1.7500001 -0.018454492
vt 2.25 0.03470829
vt -0.7500001 0.03470823
vt -0.7500001 0.14103368
vt 2.25 0.14103374
vt 1.8125004 -2.2500002
vt 1.8124996 1.4999998
vt 1.1874996 1.4999998
vt 1.1875004 -2.2500002
vt 3.6666667 0.03125
vt -1.3333333 0.03125
vt -1.3333333 -0.125
vt 3.6666667 -0.125
vt 0.3125 0.0625
vt 0.1875 0.0625
vt 0.1875 -0
vt 0.3125 -0
vt 0.9999999 0.14103371
vt 0.9999999 0.03470826
vt -1.1920929e-07 0.03470826
vt -1.4901161e-07 0.14103371
vt -2.25 -0.018454501
vt -2 -0.071617216
vt -2 0.14103368
vt -2.25 0.08787094
vt -1.1874999 -2.5624998
vt -1.1875 -2.2499998
vt -1.8125 -2.25
vt -1.8125 -2.5625
vt 1.8125004 -2.5625002
vt 1.1875005 -2.5625002
vt 4.5 0.34375
vt 4.083333 0.5
vt 3.6666665 0.5
vt 3.6666665 -0.125
vt 4.083333 -0.125
vt 4.5 0.03125
vt 1.1875002 -0.6249997
vt 1.1875002 -0.9374997
vt 1.8125004 -0.9374996
vt 1.8125001 -0.6249996
vt 1.8125 2.6077032e-07
vt 1.8125 0.31250027
vt 1.1874999 0.31250018
vt 1.1875 1.8626451e-07
vt 1.8125002 -0.6249997
vt 1.8125002 2.6077032e-07
vt 1.1875002 1.8626451e-07
vt 1.1875002 -0.6249998
vt 1.8124995 0.62500125
vt 1.1874996 0.6250009
vt 1.1875 8.8165615e-07
vt 1.8125 1.2343186e-06
vt -0.9375004 1.8124999
vt -0.9375003 1.1874999
vt -0.6250003 1.1875
vt -0.6250004 1.8124999
vt 1.8125 3.303033e-07
vt 1.1875 2.3593093e-07
vt 1.1875 -0.31249976
vt 1.8125 -0.31249967
vt 1.4999999 -0.071617156
vt 1.7499999 -0.018454427
vt 1.7499999 0.087871015
vt 1.4999998 0.14103374
vt -1.1875007 1.5000002
vt -1.1875007 1.8125002
vt -1.8125007 1.8125001
vt -1.8125007 1.5000001
vt 1.8124996 1.4999999
vt 1.8124994 1.8124999
vt 1.1874995 1.8124998
vt -1.333333 0.5
vt -1.7499996 0.5
vt -2.1666665 0.34375
vt -2.1666665 0.03125
vt -1.7499996 -0.125
vt -1.333333 -0.125
vt 0.99999994 -0.1779426
vt -4.4703484e-08 -0.17794263
vt -5.9604645e-08 -0.071617186
vt 0.99999994 -0.071617156
vt -0.125 0.0625
vt 0 0.09375
vt -0.125 -0.0625
vt -0.375 -0.0625
vt 0.375 0.0625
vt 0.375 0.15625
vt 0.125 0.15625
vt 2.2499998 0.14103374
vt -0.75 0.034708235
vt 1.1875005 -2.2500005
vt 1.1874996 1.4999996
vt 1.8124995 1.4999999
vt 1.8125005 -2.25
vt -1.7500001 -0.01845449
vt 1.2499999 -0.018454434
vt -1.8124994 -2.2499998
vt -1.8125001 1.5000002
vt -1.1875001 1.5000002
vt -1.1874994 -2.2499995
vt 0.49999994 0.19419643
vt 0.50000006 -0.44375622
vt 1.0000001 -0.44375622
vt 1 0.19419643
vt 1.1874995 0.6250002
vt 1.8124995 0.62500054
vt 1.8125 5.2899367e-07
vt 1.1875 1.7633123e-07
vt -0.93750006 1.1874998
vt -0.9375002 1.8124998
vt -0.6250002 1.8124998
vt -0.62500006 1.1874998
vt 1.1875 4.7186187e-08
vt 1.8125 1.4155856e-07
vt 1.8125 -0.31249985
vt 1.1875 -0.31249994
vt -1.8125002 1.5000001
vt -1.8125002 1.8125001
vt -1.1875002 1.8125002
vt -1.1875002 1.5000002
vt 1.1874998 1.4999996
vt 1.1874998 1.8124996
vt 1.8124998 1.8124999
vt 1.8124998 1.4999999
vt 1.2499998 0.14103374
vt 0.9999999 -0.071617216
vt -7.4505806e-08 -0.07161722
vt -5.9604645e-08 -0.17794266
vt 1 -0.17794266
vt 0.9999999 0.034708265
vt 0.9999998 0.14103371
vt -1.3411045e-07 0.1410337
vt -1.0430813e-07 0.034708258
vt -1.8124995 -2.5625
vt -1.8124995 -2.25
vt -1.1874995 -2.2499998
vt -1.1874995 -2.5624998
vt 1.1875005 -2.5625005
vt 1.8125005 -2.2500002
vt 1.8125005 -2.5625002
vt -1.75 0.14103368
vt -1.75 -0.071617216
vt 1.8125 -0.6249998
vt 1.8125 -0.9374998
vt 1.1875 -0.93749994
vt 1.1875 -0.62499994
vt 1.1875 3.7252903e-08
vt 1.1875 0.31250003
vt 1.8125 0.31250012
vt 1.8125 1.1175871e-07
vt 1.8125 -0.6249999

# normals
vn -1 0 -0
vn 0 -0.31622776601683794 0.9486832980505138
vn 0 -1 -0
vn -0 1 -0
vn 0 -0.31622776601683794 -0.9486832980505138
vn 0.8320502943378437 -0.5547001962252291 -0
vn -0.8944271909999159 0.4472135954999579 -0
vn 0 0 1
vn 0 -0 -1
vn 0.8944271909999159 -0.4472135954999579 -0
vn 0.19611613513818404 0.9805806756909202 -0
vn 0.31622776601683794 0.9486832980505138 -0
vn 0 0.7071067811865475 0.7071067811865475
vn 1 0 0
vn -0 0.7071067811865475 -0.7071067811865475
vn 0 -0.7071067811865475 -0.7071067811865475
vn 0 -0.7071067811865475 0.7071067811865475
vn 0.7071067811865475 -0.7071067811865475 -0
vn 0.7071067811865475 0.7071067811865475 -0
vn -0.7071067811865475 -0.7071067811865475 0
vn -0.7071067811865475 0.7071067811865475 -0
vn 0 0.4472135954999579 0.8944271909999159
vn -0 0.4472135954999579 -0.8944271909999159

o entity0_brush0
usemtl F1/CNDE1A6
f  1/1/1  2/2/1  3/3/1  4/4/1
usemtl F1/CNDE1A6
f  5/3/2  3/4/2  2/5/2  6/6/2
usemtl F1/CNDE1A6
f  6/7/3  2/8/3  1/9/3  7/10/3
usemtl F1/CNDE1A6
f  8/11/4  4/12/4  3/13/4  5/14/4
usemtl F1/CNDE1A6
f  7/15/5  1/16/5  4/17/5  8/3/5
usemtl F1/CNDE1A6
f  8/18/6  5/19/6  6/20/6  7/21/6

o entity0_brush1
usemtl F1/CNDE1B1
f  9/22/7  10/23/7  11/24/7  12/25/7
usemtl F1/CNDE1B1
f  13/26/8  11/24/8  10/22/8  14/27/8
usemtl F1/CNDE1B1
f  14/28/3  10/29/3  9/30/3  15/31/3
usemtl F1/CNDE1B1
f  16/32/4  12/33/4  11/34/4  13/35/4
usemtl F1/CNDE1B1
f  15/27/9  9/36/9  12/37/9  16/38/9
usemtl F1/CNDE1B1
f  16/39/10  13/40/10  14/41/10  15/42/10

o entity0_brush2
usemtl 128x128/Brick/Brick_19-128x128
f  17/43/1  18/44/1  19/45/1  20/46/1
usemtl F1/CNDE1A6
f  21/47/8  20/48/8  19/49/8  22/50/8
usemtl 128x128/Brick/Brick_19-128x128
f  22/51/3  19/52/3  18/53/3  23/54/3
usemtl F1/CNDE1A6
f  23/55/9  18/56/9  17/57/9  24/58/9
usemtl F1/CNDE1A6
f  24/59/11  17/60/11  20/61/11  21/62/11
usemtl F1/CNDE1A6
f  23/63/12  24/64/12  21/65/12  22/66/12

o entity0_brush3
usemtl F1/CNDE1A6
f  25/67/1  26/68/1  27/69/1  28/70/1
usemtl F1/CNDE1A6
f  29/47/13  27/71/13  26/68/13  30/72/13
usemtl F1/CNDE1A6
f  30/1/3  26/2/3  25/70/3  31/58/3
usemtl F1/CNDE1A6
f  32/47/4  28/71/4  27/68/4  29/72/4
usemtl F1/CNDE1A6
f  31/73/9  25/67/9  28/70/9  32/58/9
usemtl F1/CNDE1A6
f  32/71/14  29/69/14  30/67/14  31/68/14

o entity0_brush4
usemtl F1/CNDE1A6
f  33/74/1  34/73/1  35/58/1  36/75/1
usemtl F1/CNDE1A6
f  37/47/8  35/71/8  34/68/8  38/72/8
usemtl F1/CNDE1A6
f  38/76/3  34/77/3  33/78/3  39/79/3
usemtl F1/CNDE1A6
f  40/80/4  36/81/4  35/82/4  37/83/4
usemtl F1/CNDE1A6
f  39/73/15  33/67/15  36/70/15  40/58/15
usemtl F1/CNDE1A6
f  40/8/14  37/47/14  38/72/14  39/84/14

o entity0_brush5
usemtl F1/CNDE1B6
f  41/85/1  42/86/1  43/87/1  44/88/1
usemtl F1/CNDE1A6
f  45/72/8  43/68/8  42/89/8  46/90/8
usemtl 128x128/Brick/Brick_19-128x128
f  46/91/3  42/92/3  41/45/3  47/44/3
usemtl 128x128/Brick/Brick_19-128x128
f  48/93/4  44/94/4  43/95/4  45/96/4
usemtl 128x128/Brick/Brick_19-128x128
f  47/97/16  41/98/16  44/99/16  48/100/16
usemtl F1/CNDE1B6
f  48/101/14  45/102/14  46/103/14  47/85/14

o entity0_brush6
usemtl 128x128/Brick/Brick_19-128x128
f  49/104/1  50/91/1  51/105/1  52/106/1
usemtl F1/CNDE1B6
f  53/107/8  51/108/8  50/109/8  54/110/8
usemtl F1/CNCC/CNCC10_1
f  54/111/3  50/112/3  49/113/3  55/114/3
usemtl F1/CNDE1B6
f  56/115/4  52/116/4  51/117/4  53/118/4
usemtl F1/CNDE1A6
f  55/119/9  49/120/9  52/121/9  56/122/9
usemtl 128x128/Brick/Brick_19-128x128
f  56/123/14  53/124/14  54/96/14  55/125/14

o entity0_brush7
usemtl F1/CNDE1B6
f  57/126/1  58/127/1  59/128/1  60/129/1
usemtl 128x128/Brick/Brick_19-128x128
f  61/99/17  59/100/17  58/97/17  62/98/17
usemtl 128x128/Brick/Brick_19-128x128
f  62/45/3  58/44/3  57/91/3  63/92/3
usemtl 128x128/Brick/Brick_19-128x128
f  64/95/4  60/96/4  59/93/4  61/94/4
usemtl F1/CNDE1A6
f  63/130/9  57/131/9  60/74/9  64/132/9
usemtl F1/CNDE1B6
f  64/133/14  61/134/14  62/135/14  63/136/14

o entity0_brush8
usemtl 128x128/Brick/Brick_19-128x128
f  65/137/1  66/44/1  67/100/1  68/138/1
usemtl F1/CNDE1B6
f  69/139/8  67/140/8  66/141/8  70/142/8
usemtl F1/CNDE1B6
f  70/143/3  66/144/3  65/145/3  71/146/3
usemtl F1/CNCC/CNCC10_1
f  72/147/4  68/148/4  67/149/4  69/150/4
usemtl F1/CNDE1A6
f  71/151/9  65/152/9  68/153/9  72/154/9
usemtl 128x128/Brick/Brick_19-128x128
f  72/155/14  69/156/14  70/157/14  71/158/14

o entity0_brush9
usemtl F1/CNDE1B6
f  73/159/1  74/160/1  75/161/1  76/162/1
usemtl F1/CNDE1B6
f  77/163/8  78/164/8  75/139/8  74/110/8  79/165/8  80/166/8
usemtl F1/CNCC/CNCC10_1
f  79/167/3  74/168/3  73/169/3  81/170/3
usemtl F1/CNCC/CNCC10_1
f  82/171/4  76/147/4  75/150/4  78/172/4
usemtl F1/CNDE1A6
f  83/173/9  81/174/9  73/175/9  76/176/9  82/177/9  84/178/9
usemtl F1/CNCC/CNCC10_1
f  80/179/18  79/180/18  81/181/18  83/182/18
usemtl F1/CNCC/CNCC10_1
f  84/183/19  82/184/19  78/185/19  77/186/19
usemtl F1/CNCC/CNCC10_1
f  83/187/14  84/188/14  77/189/14  80/190/14

o entity0_brush10
usemtl F1/CNCC/CNCC10_1
f  85/191/1  86/192/1  87/193/1  88/194/1
usemtl F1/CNCC/CNCC10_1
f  89/195/20  90/196/20  86/197/20  85/198/20
usemtl F1/CNCC/CNCC10_1
f  88/199/21  87/200/21  91/201/21  92/202/21
usemtl F1/CNDE1B6
f  93/140/8  91/203/8  87/204/8  86/205/8  90/206/8  94/109/8
usemtl F1/CNCC/CNCC10_1
f  94/207/3  90/208/3  89/209/3  95/210/3
usemtl F1/CNCC/CNCC10_1
f  96/211/4  92/212/4  91/213/4  93/149/4
usemtl F1/CNDE1A6
f  95/214/9  89/215/9  85/216/9  88/217/9  92/218/9  96/219/9
usemtl F1/CNDE1B6
f  95/220/14  96/221/14  93/222/14  94/223/14

o entity0_brush11
usemtl F1/CNDE1A6
f  97/224/1  98/3/1  99/225/1  100/78/1
usemtl F1/CNDE1A6
f  101/77/8  99/76/8  98/51/8  102/224/8
usemtl F1/CNDE1A6
f  103/226/22  100/227/22  99/73/22  101/67/22
usemtl F1/CNDE1A6
f  102/68/3  98/72/3  97/47/3  104/71/3
usemtl F1/CNDE1A6
f  104/52/9  97/228/9  100/229/9  103/230/9
usemtl F1/CNDE1A6
f  101/225/14  102/3/14  104/52/14  103/230/14

o entity0_brush12
usemtl F1/CNDE1A6
f  105/3/1  106/52/1  107/230/1  108/225/1
usemtl F1/CNDE1A6
f  109/229/8  107/230/8  106/52/8  110/228/8
usemtl F1/CNDE1A6
f  110/47/3  106/71/3  105/68/3  111/72/3
usemtl F1/CNDE1A6
f  112/73/23  108/67/23  107/226/23  109/227/23
usemtl F1/CNDE1A6
f  111/51/9  105/224/9  108/77/9  112/76/9
usemtl F1/CNDE1A6
f  112/225/14  109/78/14  110/224/14  111/3/14

o entity0_brush13
usemtl 128x128/Brick/Brick_19-128x128
f  113/44/1  114/137/1  115/138/1  116/100/1
usemtl F1/CNDE1A6
f  117/154/8  115/153/8  114/152/8  118/151/8
usemtl F1/CNDE1B6
f  118/231/3  114/145/3  113/232/3  119/143/3
usemtl F1/CNCC/CNCC10_1
f  120/233/4  116/234/4  115/235/4  117/236/4
usemtl F1/CNDE1B6
f  119/237/9  113/238/9  116/140/9  120/139/9
usemtl 128x128/Brick/Brick_19-128x128
f  120/156/14  117/155/14  118/158/14  119/157/14

o entity0_brush14
usemtl 128x128/Brick/Brick_19-128x128
f  121/91/1  122/104/1  123/106/1  124/105/1
usemtl F1/CNDE1A6
f  125/122/8  123/121/8  122/120/8  126/119/8
usemtl F1/CNCC/CNCC10_1
f  126/239/3  122/240/3  121/241/3  127/242/3
usemtl F1/CNDE1B6
f  128/243/4  124/244/4  123/245/4  125/246/4
usemtl F1/CNDE1B6
f  127/110/9  121/109/9  124/108/9  128/107/9
usemtl 128x128/Brick/Brick_19-128x128
f  128/124/14  125/123/14  126/125/14  127/96/14

o entity0_brush15
usemtl F1/CNCC/CNCC10_1
f  129/247/1  130/248/1  131/249/1  132/250/1
usemtl F1/CNCC/CNCC10_1
f  133/251/20  134/252/20  130/253/20  129/254/20
usemtl F1/CNCC/CNCC10_1
f  132/255/21  131/256/21  135/257/21  136/258/21
usemtl F1/CNDE1A6
f  137/219/8  135/218/8  131/217/8  130/216/8  134/215/8  138/214/8
usemtl F1/CNCC/CNCC10_1
f  138/259/3  134/260/3  133/261/3  139/262/3
usemtl F1/CNCC/CNCC10_1
f  140/263/4  136/264/4  135/265/4  137/266/4
usemtl F1/CNDE1B6
f  139/267/9  133/206/9  129/205/9  132/204/9  136/203/9  140/140/9
usemtl F1/CNDE1B6
f  139/268/14  140/269/14  137/270/14  138/271/14

o entity0_brush16
usemtl F1/CNDE1B6
f  141/272/1  142/273/1  143/274/1  144/275/1
usemtl F1/CNDE1A6
f  145/178/8  146/177/8  143/176/8  142/175/8  147/174/8  148/173/8
usemtl F1/CNCC/CNCC10_1
f  147/276/3  142/277/3  141/278/3  149/279/3
usemtl F1/CNCC/CNCC10_1
f  150/280/4  144/233/4  143/281/4  146/282/4
usemtl F1/CNDE1B6
f  151/166/9  149/165/9  141/283/9  144/284/9  150/164/9  152/163/9
usemtl F1/CNCC/CNCC10_1
f  148/285/18  147/286/18  149/287/18  151/288/18
usemtl F1/CNCC/CNCC10_1
f  152/289/19  150/290/19  146/291/19  145/292/19
usemtl F1/CNCC/CNCC10_1
f  151/288/14  152/289/14  145/292/14  148/293/14

