mtllib turretmodel.mtl
# vertices
v -48 -16 -0
v -40 -16 32
v -48 16 64
v -64 16 -0
v 48 16 64
v 40 -16 32
v 48 -16 -0
v 64 16 -0
v -32 96 -32
v -32 96 32
v -32 128 32
v -32 128 -32
v 0 32 -0
v 0 160 -0
v 32 128 32
v 32 96 32
v 32 128 -32
v 32 96 -32
v -40 -16 -32
v -48 -16 -0
v -64 16 -0
v -48 16 -64
v 64 16 -0
v 48 -16 -0
v 40 -16 -32
v 48 16 -64
v -32 32 -16
v -48 16 -16
v -48 16 16
v -32 32 16
v -16 16 48
v -16 32 32
v -16 16 -48
v -16 32 -32
v 16 32 32
v 16 16 48
v 48 16 16
v 16 16 -48
v 48 16 -16
v 32 32 -16
v 16 32 -32
v 32 32 16
v -48 176 -16
v -32 160 -16
v -32 160 16
v -48 176 16
v -16 160 32
v -16 176 48
v -16 160 -32
v -16 176 -48
v 16 176 48
v 16 160 32
v 32 160 16
v 16 160 -32
v 32 160 -16
v 48 176 -16
v 16 176 -48
v 48 176 16
v -64 176 -0
v -48 176 64
v -40 208 32
v -48 208 -0
v 40 208 32
v 48 176 64
v 64 176 -0
v 48 208 -0
v -48 176 -64
v -64 176 -0
v -48 208 -0
v -40 208 -32
v 48 208 -0
v 64 176 -0
v 48 176 -64
v 40 208 -32

# texture coordinates
vt 0.047619045 -0.08630952
vt 0.54761904 -0.08630952
vt 1.0476191 0.038690478
vt 0.047619045 0.038690478
vt 0.75 -0.111519605
vt -0.75 -0.111519605
vt -0.625 0.013480395
vt 0.625 0.013480395
vt -0.625 -0.125
vt 0.625 -0.125
vt 0.75 -0
vt -0.75 -0
vt 1 -0
vt -1 -0
vt -0.75 -0.25
vt 0.75 -0.25
vt -0.75 -0.0625
vt 0.75 -0.0625
vt 1 0.0625
vt -1 0.0625
vt -0.047619045 -0.08630952
vt -0.047619045 0.038690478
vt -1.0476191 0.038690478
vt -0.54761904 -0.08630952
vt -0.375 0.375
vt 0.125 0.375
vt 0.125 0.5
vt -0.375 0.5
vt -0.12500003 0.0625
vt -0.625 -0.0625
vt -0.625 0.1875
vt -0.125 0.1875
vt -0.125 -0.0625
vt 0.125 0.0625
vt 0.375 0.5
vt -0.125 0.5
vt -0.125 0.375
vt 0.375 0.375
vt -0.375 0.3125
vt 0.125 0.3125
vt -0.125 0.062500015
vt 0.375 -0.0625
vt 0.375 0.1875
vt 0.125 0.062499993
vt -0.125 -0.062500015
vt 0.125 -0.3125
vt -0.375 -0.3125
vt 0.124999985 0.0625
vt 0.625 -0.0625
vt 0.12500003 0.0625
vt 0.625 0.1875
vt 0.625 0.125
vt -0.625 0.125
vt 0.75 0.25
vt -0.75 0.25
vt -0.25 0.125
vt -0.25 0.0625
vt 0.25 0.0625
vt 0.25 0.125
vt 0.75 0.125
vt 0.75 0.0625
vt 1.25 0.0625
vt 1 0.125
vt -0.75 0.0625
vt -0.5 0.125
vt -1 -0.0625
vt -0.5 -0.1875
vt 0 -0.1875
vt 0.5 -0.0625
vt 0.5 0.0625
vt 0 0.1875
vt -0.5 0.1875
vt 0.5 0.125
vt 0 0.125
vt -0.25 -0.0625
vt 0 -0.125
vt 0.5 -0.125
vt -0.5 0.0625
vt -0.75 0.125
vt -0.047619104 0.038690448
vt -1.0476191 0.038690448
vt -0.5476191 -0.08630955
vt -0.047619104 -0.08630955
vt -0.625 0.013480425
vt 0.625 0.013480425
vt 0.75 -0.111519575
vt -0.75 -0.111519575
vt -1 8.4194466e-17
vt 1 8.4194466e-17
vt -0.75 9.9502555e-17
vt 0.75 9.9502555e-17
vt 0.047619104 -0.08630955
vt 0.5476191 -0.08630955
vt 1.0476191 0.038690448
vt 0.047619104 0.038690448

# normals
vn -0.8728715609439696 -0.4364357804719848 0.2182178902359924
vn 0 -0.7071067811865475 0.7071067811865475
vn 0 -1 -0
vn -0 1 -0
vn 0 -0 -1
vn 0.8728715609439696 -0.4364357804719848 0.2182178902359924
vn -1 0 -0
vn -0.8944271909999159 -0.4472135954999579 -0
vn -0.7071067811865475 0.7071067811865475 -0
vn -0 0 1
vn -0 -0.4472135954999579 0.8944271909999159
vn 0 0.7071067811865475 0.7071067811865475
vn 0 0.7071067811865475 -0.7071067811865475
vn 0 -0.4472135954999579 -0.8944271909999159
vn 0.7071067811865475 0.7071067811865475 -0
vn 0.8944271909999159 -0.4472135954999579 -0
vn 1 0 -0
vn -0.8728715609439693 -0.4364357804719849 -0.21821789023599245
vn 0 -0.7071067811865475 -0.7071067811865475
vn 0.8728715609439696 -0.4364357804719848 -0.2182178902359924
vn -0.5773502691896258 0.5773502691896258 0.5773502691896258
vn -0.5773502691896258 0.5773502691896258 -0.5773502691896258
vn 0.5773502691896258 0.5773502691896258 0.5773502691896258
vn 0.5773502691896258 0.5773502691896258 -0.5773502691896258
vn -0.7071067811865475 -0.7071067811865475 -0
vn -0.5773502691896258 -0.5773502691896258 0.5773502691896258
vn -0.5773502691896258 -0.5773502691896258 -0.5773502691896258
vn 0.5773502691896258 -0.5773502691896258 0.5773502691896258
vn 0.5773502691896258 -0.5773502691896258 -0.5773502691896258
vn 0.7071067811865475 -0.7071067811865475 -0
vn -0.8728715609439696 0.4364357804719848 0.2182178902359922
vn 0.8728715609439697 0.43643578047198445 0.21821789023599222
vn -0.8728715609439697 0.43643578047198445 -0.21821789023599242
vn 0.8728715609439697 0.43643578047198445 -0.21821789023599242

o entity0_brush0
usemtl F1/CNDE1A6
f  1/1/1  2/2/1  3/3/1  4/4/1
usemtl F1/CNDE1A6
f  5/5/2  3/6/2  2/7/2  6/8/2
usemtl F1/CNDE1A6
f  6/9/3  2/10/3  1/11/3  7/12/3
usemtl F1/CNDE1A6
f  8/13/4  4/14/4  3/15/4  5/16/4
usemtl F1/CNDE1A6
f  7/17/5  1/18/5  4/19/5  8/20/5
usemtl F1/CNDE1A6
f  7/21/6  8/22/6  5/23/6  6/24/6

o entity0_brush1
usemtl F1/CNDE1_2
f  9/25/7  10/26/7  11/27/7  12/28/7
usemtl F1/CNDE1_2
f  13/29/8  10/30/8  9/31/8
usemtl F1/CNDE1_2
f  12/32/9  11/33/9  14/34/9
usemtl F1/CNDE1_2
f  15/35/10  11/36/10  10/37/10  16/38/10
usemtl F1/CNDE1_2
f  16/39/11  10/40/11  13/41/11
usemtl F1/CNDE1_2
f  14/34/12  11/33/12  15/42/12
usemtl F1/CNDE1_2
f  17/43/13  12/32/13  14/44/13
usemtl F1/CNDE1_2
f  13/45/14  9/46/14  18/47/14
usemtl F1/CNDE1_2
f  18/25/5  9/26/5  12/27/5  17/28/5
usemtl F1/CNDE1_2
f  17/43/15  14/48/15  15/42/15
usemtl F1/CNDE1_2
f  16/49/16  13/50/16  18/51/16
usemtl F1/CNDE1_2
f  15/36/17  16/37/17  18/38/17  17/35/17

o entity0_brush2
usemtl F1/CNDE1A6
f  19/24/18  20/21/18  21/22/18  22/23/18
usemtl F1/CNDE1A6
f  23/19/10  21/20/10  20/17/10  24/18/10
usemtl F1/CNDE1A6
f  24/12/3  20/11/3  19/52/3  25/53/3
usemtl F1/CNDE1A6
f  26/54/4  22/55/4  21/14/4  23/13/4
usemtl F1/CNDE1A6
f  25/7/19  19/8/19  22/5/19  26/6/19
usemtl F1/CNDE1A6
f  25/2/20  26/3/20  23/4/20  24/1/20

o entity0_brush3
usemtl F1/CNDE1A6
f  27/56/9  28/57/9  29/58/9  30/59/9
usemtl F1/CNDE1A6
f  30/60/21  29/61/21  31/62/21  32/63/21
usemtl F1/CNDE1A6
f  33/64/22  28/57/22  27/56/22  34/65/22
usemtl F1/CNDE1A6
f  35/59/12  32/56/12  31/57/12  36/58/12
usemtl F1/CNDE1A6
f  37/66/3  36/67/3  31/68/3  29/69/3  28/70/3  33/71/3  38/72/3  39/20/3
usemtl F1/CNDE1A6
f  40/61/4  41/73/4  34/74/4  27/57/4  30/75/4  32/76/4  35/77/4  42/18/4
usemtl F1/CNDE1A6
f  38/57/13  33/58/13  34/59/13  41/56/13
usemtl F1/CNDE1A6
f  42/60/23  35/73/23  36/70/23  37/19/23
usemtl F1/CNDE1A6
f  39/20/24  38/78/24  41/65/24  40/79/24
usemtl F1/CNDE1A6
f  42/56/15  37/57/15  39/58/15  40/59/15

o entity0_brush4
usemtl F1/CNDE1A6
f  43/58/25  44/59/25  45/56/25  46/57/25
usemtl F1/CNDE1A6
f  46/57/26  45/56/26  47/65/26  48/64/26
usemtl F1/CNDE1A6
f  49/63/27  44/60/27  43/61/27  50/62/27
usemtl F1/CNDE1A6
f  51/57/2  48/58/2  47/59/2  52/56/2
usemtl F1/CNDE1A6
f  53/61/3  52/73/3  47/74/3  45/57/3  44/75/3  49/76/3  54/77/3  55/18/3
usemtl F1/CNDE1A6
f  56/66/4  57/67/4  50/68/4  43/69/4  46/70/4  48/71/4  51/72/4  58/20/4
usemtl F1/CNDE1A6
f  54/59/19  49/56/19  50/57/19  57/58/19
usemtl F1/CNDE1A6
f  58/20/28  51/78/28  52/65/28  53/79/28
usemtl F1/CNDE1A6
f  55/60/29  54/73/29  57/70/29  56/19/29
usemtl F1/CNDE1A6
f  58/58/30  53/59/30  55/56/30  56/57/30

o entity0_brush5
usemtl F1/CNDE1A6
f  59/80/31  60/81/31  61/82/31  62/83/31
usemtl F1/CNDE1A6
f  63/84/12  61/85/12  60/86/12  64/87/12
usemtl F1/CNDE1A6
f  64/54/3  60/55/3  59/88/3  65/89/3
usemtl F1/CNDE1A6
f  66/90/4  62/91/4  61/52/4  63/53/4
usemtl F1/CNDE1A6
f  65/19/5  59/20/5  62/17/5  66/18/5
usemtl F1/CNDE1A6
f  66/92/32  63/93/32  64/94/32  65/95/32

o entity0_brush6
usemtl F1/CNDE1A6
f  67/94/33  68/95/33  69/92/33  70/93/33
usemtl F1/CNDE1A6
f  71/17/10  69/18/10  68/19/10  72/20/10
usemtl F1/CNDE1A6
f  72/89/3  68/88/3  67/15/3  73/16/3
usemtl F1/CNDE1A6
f  74/9/4  70/10/4  69/91/4  71/90/4
usemtl F1/CNDE1A6
f  73/86/13  67/87/13  70/84/13  74/85/13
usemtl F1/CNDE1A6
f  74/82/34  71/83/34  72/80/34  73/81/34

